<svg width="312" height="243" viewBox="0 0 312 243" fill="none" xmlns="http://www.w3.org/2000/svg">
<path d="M45.6888 220.593C106.626 250.469 205.38 250.469 266.302 220.593C327.225 190.718 327.239 142.297 266.302 112.422C205.365 82.5461 106.611 82.5529 45.6888 112.422C-15.2338 142.291 -15.2267 190.724 45.6888 220.593Z" fill="#F5F5F5"/>
<path d="M27.6156 172.967H30.1821C31.3584 169.28 32.1295 165.49 32.4834 161.656C33.0425 154.557 29.3792 143.69 22.6689 140.05C15.9587 136.41 12.324 140.911 14.5751 144.76C16.8261 148.609 24.4182 159.557 24.5185 168.977L27.6156 172.967Z" fill="#6BE356"/>
<path d="M26.9989 172.967H27.7158C28.4163 168.318 28.4163 163.6 27.7158 158.951C26.5544 149.739 23.3284 145.46 20.3317 142.486C20.2661 142.421 20.1756 142.383 20.0802 142.38C19.9847 142.377 19.8921 142.411 19.8227 142.472C19.7533 142.534 19.7128 142.619 19.7101 142.708C19.7074 142.798 19.7428 142.885 19.8084 142.95C22.7262 145.837 25.8662 150.008 26.9774 159.025C27.6876 163.648 27.6948 168.342 26.9989 172.967Z" fill="white"/>
<path d="M27.8237 172.967C26.5046 167.126 20.5113 160.182 14.8549 158.985C8.29522 157.639 5.10499 160.889 6.04414 163.695C6.98329 166.501 12.1665 167.806 17.1992 170.006C18.8938 170.743 20.4428 171.744 21.7802 172.967H27.8237Z" fill="#6BE356"/>
<path d="M25.4361 172.967H26.2032C23.4287 166.42 17.12 161.75 11.9583 161.319C11.9115 161.315 11.8643 161.319 11.8193 161.332C11.7744 161.344 11.7326 161.366 11.6965 161.394C11.6604 161.422 11.6307 161.457 11.6092 161.496C11.5876 161.535 11.5747 161.578 11.5711 161.622C11.5651 161.666 11.5689 161.711 11.5821 161.753C11.5954 161.796 11.6178 161.836 11.6481 161.87C11.6784 161.904 11.7158 161.932 11.7581 161.952C11.8003 161.971 11.8465 161.983 11.8937 161.985C16.7687 162.396 22.7262 166.783 25.4361 172.967Z" fill="white"/>
<path d="M259.248 111.406L264.618 114.05L265.069 110.894C262.409 103.856 264.596 95.8757 267.471 92.5517C270.346 89.2277 269.794 86.7851 268.754 85.6951C267.715 84.605 263.772 83.7774 259.872 88.0569C255.972 92.3364 255.076 97.5309 255.728 102.773C256.144 106.05 257.979 109.414 259.248 111.406Z" fill="#6BE356"/>
<path opacity="0.2" d="M259.248 111.406L264.618 114.05L265.069 110.894C262.409 103.856 264.596 95.8757 267.471 92.5517C270.346 89.2277 269.794 86.7851 268.754 85.6951C267.715 84.605 263.772 83.7774 259.872 88.0569C255.972 92.3364 255.076 97.5309 255.728 102.773C256.144 106.05 257.979 109.414 259.248 111.406Z" fill="black"/>
<path d="M261.463 112.495L262.524 113.02C262.514 113.001 262.502 112.983 262.488 112.966C260.968 111.271 259.004 102.968 259.829 98.1026C260.847 92.0939 264.13 88.171 266.94 86.509C266.975 86.4891 267.005 86.4629 267.028 86.432C267.051 86.4011 267.068 86.3661 267.077 86.3291C267.085 86.292 267.086 86.2537 267.079 86.2164C267.071 86.1791 267.056 86.1436 267.034 86.112C266.988 86.0477 266.918 86.0025 266.837 85.9862C266.757 85.9699 266.673 85.9836 266.603 86.0245C263.736 87.7538 260.266 91.8112 259.212 98.0152C258.452 102.544 259.972 109.716 261.463 112.495Z" fill="white"/>
<path d="M264.725 99.3948C266.295 103.008 266.288 104.778 263.728 105.148C261.42 105.471 258.617 108.102 261.219 112.375L276.446 119.87C276.485 119.072 276.695 118.288 277.065 117.568C277.434 116.847 277.956 116.205 278.597 115.678C281.099 113.33 283.407 111.56 283.049 108.95C282.691 106.339 280.275 103.822 279.873 101.548C279.472 99.2737 280.705 97.9751 283.336 95.4249C285.967 92.8747 288.354 88.9182 284.841 87.1149C281.328 85.3115 277.307 88.4 275.629 90.4792C273.951 92.5584 272.417 93.4735 269.112 93.2986C265.807 93.1236 263.155 95.7815 264.725 99.3948Z" fill="#6BE356"/>
<path d="M269.034 116.223C268.962 105.134 277.429 92.1477 282.139 89.5235C282.208 89.4819 282.258 89.4168 282.278 89.3417C282.298 89.2667 282.287 89.1872 282.246 89.1198C282.203 89.055 282.135 89.0084 282.056 88.9896C281.977 88.9708 281.894 88.9813 281.823 89.0189C277.049 91.7104 268.51 104.704 268.417 115.934L269.034 116.223Z" fill="white"/>
<path d="M271.299 104.697C271.234 104.711 271.167 104.704 271.107 104.677C271.047 104.65 270.998 104.605 270.969 104.549C269.602 102.154 268.45 99.6557 267.528 97.08C267.516 97.0438 267.511 97.0057 267.515 96.9678C267.518 96.9299 267.53 96.8931 267.548 96.8593C267.567 96.8256 267.592 96.7956 267.623 96.7711C267.654 96.7467 267.69 96.7281 267.729 96.7167C267.767 96.7052 267.808 96.7009 267.848 96.7042C267.889 96.7074 267.928 96.7181 267.964 96.7356C268 96.7531 268.032 96.7771 268.058 96.8062C268.084 96.8352 268.104 96.8688 268.116 96.9051C269.03 99.445 270.166 101.909 271.514 104.273C271.552 104.342 271.56 104.422 271.536 104.496C271.512 104.571 271.458 104.633 271.385 104.67L271.299 104.697Z" fill="white"/>
<path d="M269.263 111.493C269.204 111.503 269.144 111.498 269.088 111.478C269.033 111.458 268.984 111.423 268.948 111.379C268.901 111.314 268.882 111.235 268.897 111.158C268.912 111.081 268.958 111.013 269.027 110.968C272.114 108.94 275.859 107.988 279.615 108.277C279.697 108.287 279.771 108.327 279.822 108.388C279.872 108.449 279.895 108.526 279.884 108.603C279.874 108.68 279.831 108.75 279.766 108.797C279.701 108.844 279.618 108.865 279.536 108.856C275.94 108.599 272.358 109.503 269.385 111.419C269.35 111.451 269.309 111.476 269.263 111.493Z" fill="white"/>
<path d="M179.291 43.7545L161.82 34.2871L144.356 43.7545L161.82 53.2218L179.291 43.7545Z" fill="#F5F5F5"/>
<path d="M161.82 72.1637L179.291 62.6963V43.7549L161.82 53.2222V72.1637Z" fill="#EBEBEB"/>
<path d="M165.19 65.8786C165.097 65.8801 165.006 65.8593 164.924 65.818C164.813 65.7415 164.724 65.6396 164.666 65.5218C164.609 65.404 164.584 65.2744 164.595 65.1451V63.1265V62.9785H164.702L166.38 62.0566V64.2973C166.377 64.5859 166.301 64.8697 166.158 65.125C166.014 65.3802 165.808 65.5994 165.555 65.7642C165.447 65.8329 165.32 65.8725 165.19 65.8786ZM164.867 63.2745V65.1317C164.855 65.2181 164.867 65.306 164.901 65.3871C164.934 65.4683 164.989 65.5401 165.061 65.596C165.119 65.6203 165.183 65.6294 165.246 65.6223C165.309 65.6152 165.369 65.5921 165.419 65.5556C165.634 65.415 165.81 65.2292 165.935 65.013C166.059 64.7969 166.128 64.5564 166.136 64.3108V64.1493H165.512L165.39 63.362L164.867 63.2745ZM165.727 63.8936H166.115V62.5142L165.111 63.0592L165.606 63.1467L165.727 63.8936Z" fill="white"/>
<path d="M165.491 67.4801C165.455 67.4801 165.42 67.4666 165.395 67.4426C165.369 67.4186 165.355 67.3861 165.355 67.3522V65.67C165.354 65.653 165.356 65.6359 165.363 65.62C165.369 65.604 165.379 65.5895 165.392 65.5775C165.405 65.5654 165.421 65.556 165.438 65.5499C165.455 65.5439 165.473 65.5412 165.491 65.5422C165.527 65.5422 165.562 65.5557 165.587 65.5796C165.613 65.6036 165.627 65.6361 165.627 65.67V67.3253C165.63 67.344 165.629 67.3632 165.624 67.3814C165.618 67.3997 165.609 67.4167 165.596 67.4313C165.583 67.4459 165.567 67.4578 165.549 67.4662C165.531 67.4746 165.511 67.4793 165.491 67.4801Z" fill="white"/>
<path d="M164.709 67.9042C164.686 67.9041 164.662 67.8977 164.642 67.8858C164.622 67.8739 164.605 67.857 164.595 67.8369C164.585 67.8232 164.578 67.8075 164.575 67.7911C164.572 67.7747 164.573 67.7579 164.578 67.7419C164.583 67.7259 164.591 67.711 164.603 67.6984C164.614 67.6858 164.629 67.6756 164.645 67.6687L166.201 66.8209C166.216 66.8125 166.233 66.807 166.251 66.8048C166.269 66.8026 166.287 66.8037 166.304 66.8081C166.322 66.8125 166.338 66.82 166.352 66.8303C166.366 66.8406 166.378 66.8534 166.387 66.868C166.403 66.8978 166.407 66.9322 166.398 66.9646C166.389 66.9969 166.367 67.0249 166.337 67.0429L164.774 67.884L164.709 67.9042Z" fill="white"/>
<path d="M170.273 64.9974C170.223 65.0115 170.171 65.0115 170.122 64.9974C170.07 64.9644 170.027 64.9191 170 64.8659C169.972 64.8128 169.96 64.7537 169.964 64.6946V64.3515C169.963 64.335 169.966 64.3185 169.972 64.3031C169.978 64.2876 169.987 64.2734 169.999 64.2615C170.011 64.2495 170.026 64.24 170.042 64.2335C170.058 64.2269 170.076 64.2236 170.093 64.2236C170.111 64.2227 170.13 64.2253 170.147 64.2314C170.164 64.2375 170.179 64.2468 170.192 64.2589C170.205 64.271 170.215 64.2855 170.221 64.3014C170.228 64.3174 170.231 64.3344 170.23 64.3515V64.6341C170.23 64.6879 170.23 64.7148 170.23 64.7148C170.23 64.7148 170.273 64.7148 170.316 64.7148C170.399 64.6437 170.465 64.5562 170.508 64.4585C170.552 64.3608 170.571 64.2553 170.566 64.1496V61.9426C170.566 61.9261 170.57 61.9098 170.577 61.8946C170.584 61.8795 170.594 61.8658 170.607 61.8545C170.62 61.8431 170.635 61.8344 170.651 61.8287C170.668 61.823 170.685 61.8206 170.703 61.8215C170.737 61.8215 170.77 61.8342 170.794 61.8569C170.818 61.8797 170.832 61.9105 170.832 61.9426V64.19C170.837 64.3398 170.806 64.4887 170.74 64.6253C170.674 64.7618 170.575 64.8822 170.452 64.9773C170.394 64.9946 170.333 65.0014 170.273 64.9974Z" fill="white"/>
<path d="M168.853 63.0392V62.8238C168.886 62.2634 169.06 61.7182 169.358 61.2321C169.657 60.7459 170.073 60.3323 170.574 60.0247C170.753 59.8833 170.974 59.7971 171.206 59.7776C171.439 59.7582 171.673 59.8065 171.876 59.9159C172.079 60.0254 172.241 60.1908 172.34 60.3896C172.439 60.5884 172.471 60.811 172.43 61.0273V61.1013L168.853 63.0392ZM171.377 60.0516C171.14 60.0586 170.909 60.126 170.71 60.2467C170.284 60.5103 169.923 60.8561 169.651 61.2611C169.379 61.6661 169.202 62.1208 169.133 62.5951L172.158 60.96C172.169 60.8012 172.137 60.6423 172.064 60.4985C171.992 60.3547 171.881 60.231 171.742 60.1391C171.631 60.0798 171.505 60.0496 171.377 60.0516Z" fill="white"/>
<path d="M175.069 62.4135C175.034 62.4135 175 62.401 174.975 62.3785C174.95 62.3559 174.934 62.3251 174.933 62.2924V57.9994C174.933 57.9655 174.947 57.933 174.973 57.909C174.998 57.8851 175.033 57.8716 175.069 57.8716C175.105 57.8716 175.14 57.8851 175.165 57.909C175.191 57.933 175.205 57.9655 175.205 57.9994V62.2924C175.203 62.3251 175.188 62.3559 175.163 62.3785C175.137 62.401 175.104 62.4135 175.069 62.4135Z" fill="white"/>
<path d="M174.703 58.9749H174.653C174.637 58.9684 174.622 58.9588 174.609 58.9467C174.597 58.9347 174.587 58.9205 174.58 58.9048C174.573 58.8892 174.57 58.8725 174.57 58.8556C174.571 58.8388 174.574 58.8222 174.581 58.8067L175.062 57.7705L175.592 58.3492C175.604 58.3616 175.612 58.3759 175.618 58.3914C175.623 58.4069 175.625 58.4232 175.624 58.4394C175.622 58.4557 175.618 58.4715 175.61 58.4861C175.602 58.5006 175.591 58.5135 175.578 58.5241C175.565 58.5347 175.549 58.5428 175.533 58.5479C175.516 58.5529 175.499 58.5549 175.482 58.5536C175.464 58.5524 175.448 58.5479 175.432 58.5406C175.417 58.5332 175.403 58.523 175.392 58.5107L175.133 58.2415L174.825 58.9144C174.813 58.9343 174.795 58.9505 174.774 58.9612C174.752 58.972 174.728 58.9767 174.703 58.9749Z" fill="white"/>
<path d="M176.338 61.754C176.303 61.7523 176.27 61.7381 176.246 61.7143C176.222 61.6905 176.209 61.659 176.209 61.6262V57.3332C176.204 57.3145 176.204 57.295 176.208 57.2762C176.213 57.2574 176.222 57.2398 176.235 57.2247C176.247 57.2096 176.264 57.1974 176.282 57.189C176.3 57.1806 176.321 57.1763 176.341 57.1763C176.362 57.1763 176.382 57.1806 176.401 57.189C176.419 57.1974 176.435 57.2096 176.448 57.2247C176.461 57.2398 176.47 57.2574 176.474 57.2762C176.479 57.295 176.479 57.3145 176.474 57.3332V61.6262C176.474 61.6601 176.46 61.6926 176.434 61.7166C176.408 61.7406 176.374 61.754 176.338 61.754Z" fill="white"/>
<path d="M175.944 58.3089H175.893C175.877 58.3023 175.862 58.2927 175.849 58.2807C175.837 58.2687 175.827 58.2544 175.82 58.2388C175.814 58.2232 175.81 58.2065 175.811 58.1896C175.811 58.1728 175.815 58.1562 175.822 58.1407L176.302 57.1045L176.833 57.6832C176.856 57.7069 176.869 57.7381 176.869 57.7706C176.869 57.8031 176.856 57.8344 176.833 57.8581C176.806 57.8808 176.772 57.8934 176.736 57.8934C176.7 57.8934 176.665 57.8808 176.639 57.8581L176.388 57.5822L176.08 58.2551C176.065 58.2754 176.044 58.2913 176.02 58.3009C175.996 58.3104 175.969 58.3132 175.944 58.3089Z" fill="white"/>
<path d="M161.82 72.1637L144.349 62.6963L144.356 43.7549L161.82 53.2222V72.1637Z" fill="#E0E0E0"/>
<path d="M154.035 49.0029L171.491 39.5289L169.52 38.459L152.056 47.9331L154.035 49.0029Z" fill="white"/>
<path d="M147.002 54.6147L153.261 57.9791C153.621 58.2017 153.92 58.5001 154.135 58.8505C154.351 59.201 154.476 59.5938 154.501 59.9977V63.6178C154.501 64.3647 153.942 64.6675 153.261 64.2907L147.002 60.9263C146.642 60.7041 146.342 60.4058 146.126 60.0553C145.911 59.7047 145.786 59.3117 145.762 58.9077V55.2876C145.762 54.5407 146.321 54.2446 147.002 54.6147Z" fill="#6BE356"/>
<path d="M146.521 55.5166L146.758 55.6512V59.6682L146.521 59.5404V55.5166Z" fill="#6BE356"/>
<path d="M147.489 56.0415L147.898 56.2703V60.2873L147.489 60.0653V56.0415Z" fill="#6BE356"/>
<path d="M148.457 56.5664L148.694 56.6943V60.718L148.457 60.5902V56.5664Z" fill="#6BE356"/>
<path d="M149.181 56.9565L149.661 57.219V61.2428L149.181 60.9736V56.9565Z" fill="#6BE356"/>
<path d="M150.386 57.6157L150.629 57.7436V61.7674L150.386 61.6328V57.6157Z" fill="#6BE356"/>
<path d="M151.088 57.9858L151.59 58.2684V62.2855L151.081 62.0029L151.088 57.9858Z" fill="#6BE356"/>
<path d="M152.321 58.6655L152.558 58.7934V62.8104L152.321 62.6826V58.6655Z" fill="#6BE356"/>
<path d="M152.874 58.9551L152.995 59.0224V63.0394L152.874 62.9789V58.9551Z" fill="#6BE356"/>
<path d="M151.884 58.4434L151.998 58.5106V62.5277L151.884 62.4672V58.4434Z" fill="#6BE356"/>
<path d="M149.934 57.3735L150.049 57.4341V61.4579L149.934 61.3906V57.3735Z" fill="#6BE356"/>
<path d="M148.866 56.7949L148.988 56.8622V60.886L148.866 60.8187V56.7949Z" fill="#6BE356"/>
<path d="M148.099 56.3979L148.221 56.4652V60.489L148.099 60.4218V56.3979Z" fill="#6BE356"/>
<path d="M147.059 55.8057L147.181 55.8729V59.8967L147.059 59.8295V55.8057Z" fill="#6BE356"/>
<path d="M153.289 59.1836L153.526 59.3114V63.3352L153.289 63.2074V59.1836Z" fill="#6BE356"/>
<path d="M155.999 40.599L135.61 29.5571L115.229 40.599L135.61 51.6476L155.999 40.599Z" fill="#F5F5F5"/>
<path d="M126.871 46.9106L147.26 35.8687L145.282 34.7988L124.9 45.8407L126.871 46.9106Z" fill="white"/>
<path d="M135.61 86.3614L155.999 75.3195V40.5991L135.61 51.6477V86.3614Z" fill="#EBEBEB"/>
<path d="M138.98 80.1099C138.886 80.1114 138.794 80.0881 138.715 80.0426C138.601 79.9675 138.511 79.8658 138.454 79.7477C138.396 79.6296 138.372 79.4992 138.385 79.3697V77.3511V77.2031H138.499L140.17 76.2812V78.5219C140.166 78.8103 140.09 79.0937 139.946 79.3488C139.803 79.6039 139.597 79.8233 139.345 79.9888C139.238 80.0599 139.111 80.1018 138.98 80.1099ZM138.657 77.5059V79.363C138.645 79.4494 138.657 79.5373 138.691 79.6184C138.724 79.6996 138.779 79.7714 138.851 79.8273C138.909 79.8517 138.973 79.8608 139.036 79.8536C139.099 79.8465 139.159 79.8235 139.209 79.7869C139.424 79.6463 139.601 79.4605 139.725 79.2444C139.85 79.0282 139.918 78.7877 139.926 78.5421V78.3806H139.302L139.181 77.5934L138.657 77.5059ZM139.517 78.1249H139.94V76.7455L138.937 77.2973L139.431 77.378L139.517 78.1249Z" fill="white"/>
<path d="M139.281 81.6846C139.245 81.6846 139.21 81.6712 139.184 81.6472C139.159 81.6232 139.145 81.5907 139.145 81.5568V79.8679C139.145 79.8514 139.148 79.8351 139.155 79.8199C139.162 79.8048 139.172 79.7911 139.185 79.7798C139.198 79.7684 139.213 79.7597 139.229 79.754C139.246 79.7483 139.263 79.7459 139.281 79.7468C139.316 79.7467 139.349 79.7593 139.375 79.7818C139.4 79.8043 139.415 79.8352 139.417 79.8679V81.5568C139.415 81.5902 139.4 81.6218 139.375 81.6454C139.35 81.669 139.316 81.683 139.281 81.6846Z" fill="white"/>
<path d="M138.507 82.1289C138.483 82.1294 138.461 82.1241 138.44 82.1134C138.42 82.1028 138.403 82.0872 138.392 82.0684C138.376 82.0386 138.372 82.0041 138.381 81.9718C138.39 81.9394 138.412 81.9115 138.442 81.8934L139.998 81.0523C140.013 81.0439 140.03 81.0384 140.048 81.0362C140.066 81.0341 140.084 81.0352 140.101 81.0396C140.119 81.0439 140.135 81.0515 140.149 81.0618C140.163 81.072 140.175 81.0848 140.184 81.0994C140.193 81.1135 140.199 81.1291 140.201 81.1453C140.203 81.1614 140.202 81.1779 140.197 81.1936C140.193 81.2093 140.185 81.224 140.174 81.2367C140.163 81.2494 140.149 81.2599 140.134 81.2677L138.571 82.1155C138.552 82.1262 138.529 82.1309 138.507 82.1289Z" fill="white"/>
<path d="M144.063 79.2015C144.01 79.2017 143.959 79.1902 143.912 79.1679C143.86 79.1349 143.818 79.0895 143.79 79.0364C143.762 78.9832 143.75 78.9241 143.754 78.8651V78.5152C143.754 78.4987 143.758 78.4824 143.765 78.4672C143.772 78.4521 143.782 78.4384 143.795 78.4271C143.807 78.4158 143.822 78.407 143.839 78.4013C143.855 78.3956 143.873 78.3932 143.89 78.3941C143.907 78.3941 143.924 78.3972 143.94 78.4033C143.956 78.4094 143.97 78.4183 143.982 78.4296C143.994 78.4408 144.003 78.4542 144.01 78.4688C144.016 78.4835 144.02 78.4993 144.02 78.5152V78.8651C144.02 78.9122 144.02 78.9391 144.02 78.9458C144.02 78.9526 144.063 78.9458 144.106 78.9458C144.189 78.8734 144.255 78.7847 144.298 78.6859C144.342 78.5871 144.362 78.4806 144.356 78.3739V76.1332C144.356 76.0993 144.371 76.0668 144.396 76.0428C144.422 76.0188 144.457 76.0054 144.493 76.0054C144.528 76.007 144.562 76.021 144.587 76.0446C144.612 76.0683 144.627 76.0998 144.629 76.1332V78.3739C144.636 78.5246 144.604 78.6746 144.537 78.8115C144.469 78.9484 144.368 79.0683 144.242 79.1612C144.186 79.1873 144.125 79.2011 144.063 79.2015Z" fill="white"/>
<path d="M142.643 77.2437V77.0217C142.677 76.4623 142.85 75.9183 143.149 75.4333C143.448 74.9483 143.864 74.5359 144.364 74.2293C144.543 74.0879 144.764 74.0017 144.997 73.9822C145.229 73.9628 145.463 74.0111 145.666 74.1205C145.869 74.23 146.031 74.3954 146.13 74.5942C146.229 74.793 146.261 75.0156 146.22 75.2318V75.3059L142.643 77.2437ZM145.167 74.2494C144.93 74.2596 144.701 74.3268 144.5 74.4446C144.073 74.7089 143.712 75.0558 143.44 75.462C143.168 75.8681 142.991 76.3242 142.923 76.7996L145.948 75.1646C145.959 75.0049 145.926 74.8453 145.853 74.7006C145.781 74.5559 145.67 74.4308 145.532 74.3369C145.42 74.2796 145.294 74.2496 145.167 74.2494Z" fill="white"/>
<path d="M148.887 76.618C148.851 76.618 148.816 76.6045 148.791 76.5805C148.765 76.5565 148.751 76.524 148.751 76.4901V72.1972C148.751 72.1633 148.765 72.1308 148.791 72.1068C148.816 72.0828 148.851 72.0693 148.887 72.0693C148.923 72.0693 148.958 72.0828 148.984 72.1068C149.009 72.1308 149.023 72.1633 149.023 72.1972V76.4901C149.023 76.524 149.009 76.5565 148.984 76.5805C148.958 76.6045 148.923 76.618 148.887 76.618Z" fill="white"/>
<path d="M148.493 73.1797H148.443C148.427 73.1738 148.412 73.1648 148.399 73.1534C148.387 73.142 148.377 73.1284 148.37 73.1133C148.364 73.0982 148.36 73.082 148.36 73.0656C148.361 73.0493 148.364 73.0331 148.371 73.0182L148.851 71.9819L149.382 72.5606C149.405 72.5856 149.416 72.6181 149.413 72.6509C149.411 72.6837 149.394 72.7141 149.368 72.7356C149.341 72.757 149.306 72.7676 149.271 72.7651C149.237 72.7625 149.204 72.7471 149.181 72.7221L148.923 72.4462L148.615 73.1191C148.603 73.139 148.585 73.1552 148.563 73.1659C148.542 73.1767 148.517 73.1814 148.493 73.1797Z" fill="white"/>
<path d="M150.128 75.9518C150.094 75.9518 150.061 75.939 150.037 75.9163C150.012 75.8936 149.999 75.8628 149.999 75.8307V71.5377C149.998 71.5212 150 71.5048 150.006 71.4893C150.012 71.4738 150.022 71.4597 150.034 71.4477C150.046 71.4357 150.061 71.4262 150.077 71.4197C150.093 71.4132 150.11 71.4098 150.128 71.4099C150.146 71.4089 150.164 71.4115 150.181 71.4176C150.198 71.4237 150.214 71.4331 150.226 71.4451C150.239 71.4572 150.249 71.4717 150.256 71.4877C150.262 71.5036 150.265 71.5207 150.264 71.5377V75.8307C150.264 75.8471 150.26 75.8635 150.254 75.8786C150.247 75.8938 150.236 75.9074 150.224 75.9188C150.211 75.9301 150.196 75.9389 150.179 75.9446C150.163 75.9502 150.145 75.9527 150.128 75.9518Z" fill="white"/>
<path d="M149.741 72.5135H149.683C149.651 72.4989 149.626 72.4736 149.613 72.4424C149.6 72.4113 149.599 72.3767 149.612 72.3453L150.092 71.3091L150.63 71.8878C150.652 71.9121 150.664 71.9432 150.664 71.9752C150.664 72.0073 150.652 72.0383 150.63 72.0627C150.617 72.0747 150.602 72.0842 150.585 72.0907C150.569 72.0972 150.551 72.1006 150.533 72.1006C150.515 72.1006 150.497 72.0972 150.48 72.0907C150.464 72.0842 150.449 72.0747 150.436 72.0627L150.185 71.7868L149.877 72.4597C149.863 72.4807 149.842 72.4971 149.818 72.5067C149.793 72.5164 149.767 72.5187 149.741 72.5135Z" fill="white"/>
<path d="M135.61 86.3614L115.229 75.3195V40.5991L135.61 51.6477V86.3614Z" fill="#E0E0E0"/>
<path d="M119.373 68.0995L125.624 71.4639C125.986 71.6853 126.287 71.9833 126.504 72.3339C126.72 72.6845 126.846 73.0779 126.871 73.4825V77.1093C126.871 77.8494 126.312 78.1522 125.624 77.7822L119.373 74.4178C119.011 74.1968 118.71 73.8988 118.495 73.548C118.279 73.1972 118.155 72.8035 118.132 72.3992V68.7791C118.132 67.9986 118.692 67.7294 119.373 68.0995Z" fill="#F5F5F5"/>
<path d="M118.892 69.001L119.129 69.1355V73.1526L118.892 73.0248V69.001Z" fill="#E0E0E0"/>
<path d="M119.86 69.5259L120.268 69.7547V73.7784L119.86 73.5497V69.5259Z" fill="#E0E0E0"/>
<path d="M120.82 70.0508L121.064 70.1786L121.057 74.2024L120.82 74.0746V70.0508Z" fill="#E0E0E0"/>
<path d="M121.552 70.4409L122.025 70.7033V74.7271L121.552 74.458V70.4409Z" fill="#E0E0E0"/>
<path d="M122.756 71.1006L122.993 71.2284V75.2522L122.756 75.1177V71.1006Z" fill="#E0E0E0"/>
<path d="M123.452 71.4702L123.961 71.7528V75.7699L123.452 75.4873V71.4702Z" fill="#E0E0E0"/>
<path d="M124.692 72.1431L124.928 72.2776V76.2947L124.692 76.1669V72.1431Z" fill="#E0E0E0"/>
<path d="M125.244 72.4395L125.366 72.5067V76.5305L125.244 76.4632V72.4395Z" fill="#E0E0E0"/>
<path d="M124.254 71.9277L124.369 71.995V76.0121L124.254 75.9515V71.9277Z" fill="#E0E0E0"/>
<path d="M122.305 70.8579L122.419 70.9185V74.9423L122.305 74.875V70.8579Z" fill="#E0E0E0"/>
<path d="M121.236 70.2793L121.351 70.3466V74.3704L121.236 74.3031V70.2793Z" fill="#E0E0E0"/>
<path d="M120.469 69.8823L120.591 69.9496V73.9734L120.469 73.9061V69.8823Z" fill="#E0E0E0"/>
<path d="M119.43 69.29L119.552 69.3573V73.3811L119.43 73.3138V69.29Z" fill="#E0E0E0"/>
<path d="M125.66 72.668L125.896 72.7958V76.8196L125.66 76.6918V72.668Z" fill="#E0E0E0"/>
<path d="M124.9 50.3222L126.871 51.392V46.9107L124.9 45.8408V50.3222Z" fill="#F0F0F0"/>
<path d="M94.8399 76.8939L80.2796 69.0078L59.8979 80.0497L74.4583 87.9425L94.8399 76.8939Z" fill="#F5F5F5"/>
<path d="M74.4585 119.5L94.8401 108.458V76.8936L74.4585 87.9422V119.5Z" fill="#EBEBEB"/>
<path d="M77.8204 113.222C77.7292 113.224 77.6395 113.201 77.5623 113.155C77.4498 113.079 77.3601 112.978 77.3023 112.86C77.2445 112.742 77.2204 112.611 77.2325 112.482V110.463V110.315H77.3401L79.0176 109.394V111.634C79.0141 111.923 78.9375 112.206 78.7942 112.461C78.6508 112.716 78.4448 112.936 78.1932 113.101C78.0825 113.172 77.9539 113.213 77.8204 113.222ZM77.505 110.618V112.475C77.4916 112.562 77.5025 112.65 77.5364 112.731C77.5703 112.813 77.6262 112.885 77.6985 112.94C77.7572 112.961 77.8206 112.969 77.8832 112.962C77.9458 112.955 78.0055 112.933 78.057 112.899C78.2717 112.759 78.4483 112.573 78.5728 112.357C78.6973 112.141 78.7662 111.9 78.7739 111.654V111.493H78.1502L78.0283 110.706L77.505 110.618ZM78.3653 111.237H78.7524V109.851L77.7487 110.403L78.2434 110.484L78.3653 111.237Z" fill="white"/>
<path d="M78.1289 114.824C78.0928 114.824 78.0581 114.81 78.0326 114.786C78.007 114.762 77.9927 114.73 77.9927 114.696V113.007C77.9926 112.991 77.9962 112.974 78.0031 112.959C78.0101 112.944 78.0202 112.93 78.033 112.919C78.0457 112.908 78.0608 112.899 78.0773 112.893C78.0938 112.887 78.1114 112.885 78.1289 112.886C78.1631 112.886 78.1959 112.899 78.2201 112.921C78.2443 112.944 78.2579 112.975 78.2579 113.007V114.696C78.258 114.729 78.2446 114.76 78.2206 114.784C78.1966 114.808 78.1638 114.822 78.1289 114.824Z" fill="white"/>
<path d="M77.3473 115.241C77.324 115.242 77.3008 115.237 77.2805 115.226C77.2602 115.216 77.2435 115.2 77.2326 115.18C77.2223 115.166 77.2152 115.151 77.2118 115.134C77.2084 115.117 77.2087 115.1 77.2128 115.084C77.2168 115.067 77.2245 115.052 77.2353 115.038C77.2462 115.025 77.2599 115.013 77.2756 115.005L78.8385 114.164C78.854 114.156 78.8711 114.15 78.8889 114.148C78.9067 114.146 78.9248 114.147 78.9421 114.151C78.9594 114.156 78.9756 114.163 78.9898 114.174C79.004 114.184 79.0159 114.197 79.0249 114.211C79.0337 114.225 79.0394 114.241 79.0416 114.257C79.0439 114.273 79.0426 114.29 79.0379 114.305C79.0333 114.321 79.0252 114.336 79.0144 114.348C79.0035 114.361 78.99 114.372 78.9747 114.379L77.4118 115.227C77.3924 115.238 77.3698 115.243 77.3473 115.241Z" fill="white"/>
<path d="M82.9107 112.341C82.8584 112.341 82.8068 112.33 82.7602 112.307C82.7078 112.274 82.6657 112.229 82.638 112.176C82.6103 112.123 82.598 112.064 82.6024 112.005V111.655C82.6024 111.623 82.616 111.592 82.6402 111.569C82.6644 111.546 82.6973 111.534 82.7315 111.534C82.749 111.533 82.7666 111.535 82.7831 111.541C82.7996 111.546 82.8146 111.555 82.8274 111.567C82.8402 111.578 82.8503 111.592 82.8572 111.607C82.8642 111.622 82.8677 111.638 82.8677 111.655V112.005C82.8677 112.052 82.8677 112.079 82.8677 112.085C82.8677 112.092 82.9107 112.085 82.9537 112.085C83.0359 112.012 83.1007 111.923 83.1439 111.824C83.1872 111.726 83.2078 111.62 83.2046 111.513V109.273C83.2 109.254 83.1999 109.234 83.2043 109.216C83.2088 109.197 83.2178 109.179 83.2305 109.164C83.2433 109.149 83.2595 109.137 83.278 109.128C83.2965 109.12 83.3167 109.116 83.3373 109.116C83.3578 109.116 83.378 109.12 83.3965 109.128C83.415 109.137 83.4312 109.149 83.444 109.164C83.4567 109.179 83.4657 109.197 83.4702 109.216C83.4747 109.234 83.4746 109.254 83.4699 109.273V111.513C83.4758 111.663 83.4445 111.812 83.3786 111.949C83.3127 112.086 83.2139 112.206 83.0899 112.301C83.0342 112.327 82.9729 112.341 82.9107 112.341Z" fill="white"/>
<path d="M81.4912 110.39V110.168C81.5252 109.608 81.6985 109.064 81.9974 108.579C82.2962 108.094 82.7122 107.682 83.2118 107.375C83.3898 107.232 83.6107 107.145 83.844 107.125C84.0772 107.104 84.3114 107.153 84.5143 107.263C84.7171 107.373 84.8787 107.539 84.9767 107.739C85.0746 107.938 85.1042 108.162 85.0614 108.378V108.452L81.4912 110.39ZM84.0147 107.395C83.7783 107.405 83.5487 107.473 83.348 107.59C82.9214 107.855 82.56 108.202 82.2879 108.608C82.0159 109.014 81.8396 109.47 81.7708 109.946L84.7961 108.304C84.8062 108.145 84.7734 107.987 84.7007 107.843C84.628 107.7 84.5178 107.576 84.3803 107.483C84.2709 107.424 84.1478 107.392 84.0219 107.389L84.0147 107.395Z" fill="white"/>
<path d="M87.7353 109.757C87.6992 109.757 87.6646 109.744 87.639 109.72C87.6135 109.696 87.5991 109.663 87.5991 109.629V105.336C87.5991 105.302 87.6135 105.27 87.639 105.246C87.6646 105.222 87.6992 105.208 87.7353 105.208C87.7714 105.208 87.8061 105.222 87.8316 105.246C87.8572 105.27 87.8715 105.302 87.8715 105.336V109.629C87.8715 109.663 87.8572 109.696 87.8316 109.72C87.8061 109.744 87.7714 109.757 87.7353 109.757Z" fill="white"/>
<path d="M87.3412 106.353H87.291C87.2747 106.347 87.2599 106.338 87.2475 106.326C87.235 106.315 87.2251 106.301 87.2184 106.286C87.2117 106.271 87.2083 106.255 87.2085 106.238C87.2087 106.222 87.2123 106.206 87.2193 106.191L87.6996 105.155L88.2301 105.733C88.253 105.758 88.2643 105.791 88.2616 105.824C88.2589 105.857 88.2424 105.887 88.2158 105.908C88.2026 105.919 88.1873 105.927 88.1708 105.932C88.1543 105.937 88.1369 105.939 88.1196 105.938C88.0847 105.935 88.0522 105.92 88.0294 105.895L87.7713 105.619L87.4631 106.292C87.4509 106.312 87.433 106.328 87.4115 106.339C87.3899 106.35 87.3655 106.354 87.3412 106.353Z" fill="white"/>
<path d="M88.9756 109.091C88.9407 109.091 88.907 109.078 88.8817 109.056C88.8564 109.033 88.8412 109.003 88.8394 108.97V104.677C88.8394 104.643 88.8537 104.61 88.8793 104.586C88.9048 104.562 88.9394 104.549 88.9756 104.549C88.9937 104.548 89.0119 104.551 89.0289 104.557C89.0459 104.563 89.0613 104.572 89.0742 104.584C89.0871 104.596 89.0971 104.611 89.1035 104.627C89.11 104.643 89.1128 104.66 89.1118 104.677V108.97C89.1118 108.986 89.1082 109.003 89.1013 109.018C89.0944 109.033 89.0842 109.047 89.0715 109.058C89.0587 109.069 89.0437 109.078 89.0272 109.084C89.0107 109.089 88.9931 109.092 88.9756 109.091Z" fill="white"/>
<path d="M88.5814 105.679C88.5652 105.685 88.5474 105.685 88.5312 105.679C88.515 105.673 88.5002 105.664 88.4877 105.653C88.4752 105.642 88.4654 105.628 88.4587 105.613C88.452 105.598 88.4486 105.581 88.4487 105.565C88.4489 105.549 88.4526 105.533 88.4595 105.518L88.9399 104.481L89.4704 105.06C89.4941 105.084 89.5073 105.115 89.5073 105.148C89.5073 105.18 89.4941 105.211 89.4704 105.235C89.4577 105.247 89.4426 105.257 89.426 105.263C89.4094 105.27 89.3916 105.273 89.3736 105.273C89.3556 105.273 89.3378 105.27 89.3212 105.263C89.3046 105.257 89.2895 105.247 89.2768 105.235L89.0259 104.959L88.7176 105.632C88.702 105.651 88.6809 105.666 88.6568 105.674C88.6327 105.682 88.6065 105.684 88.5814 105.679Z" fill="white"/>
<path d="M74.4583 119.5L59.8979 111.614V80.0493L74.4583 87.9421V119.5Z" fill="#E0E0E0"/>
<path d="M66.6582 88.1981L68.6297 89.268V84.7867L66.6582 83.7168V88.1981Z" fill="#F5F5F5"/>
<path d="M68.6297 84.7864L89.0185 73.7378L87.0398 72.668L66.6582 83.7166L68.6297 84.7864Z" fill="white"/>
<path d="M68.6298 103.721L42.4269 89.5234L16.2168 103.721L42.4269 117.925L68.6298 103.721Z" fill="#F5F5F5"/>
<path d="M42.4268 136.86L68.6297 122.663V103.721L42.4268 117.926V136.86Z" fill="#EBEBEB"/>
<path d="M45.7893 130.576C45.6986 130.574 45.6098 130.551 45.5312 130.508C45.4192 130.432 45.33 130.33 45.2722 130.213C45.2144 130.095 45.1901 129.965 45.2015 129.835V127.817V127.669H45.309L46.9866 126.74V128.988C46.9819 129.275 46.9048 129.557 46.7615 129.811C46.6181 130.065 46.4127 130.283 46.1621 130.448C46.0518 130.52 45.9233 130.564 45.7893 130.576ZM45.4667 127.972V129.829C45.454 129.914 45.4651 130.001 45.499 130.082C45.533 130.162 45.5885 130.232 45.6603 130.286C45.719 130.311 45.7837 130.322 45.8479 130.316C45.9121 130.31 45.9735 130.288 46.0259 130.253C46.2398 130.111 46.4159 129.925 46.5403 129.709C46.6646 129.493 46.734 129.253 46.7428 129.008V128.84H46.0976L45.9757 128.052L45.4667 127.972ZM46.327 128.591H46.7428V127.211L45.7463 127.763L46.241 127.844L46.327 128.591Z" fill="white"/>
<path d="M46.0901 132.177C46.0732 132.177 46.0564 132.174 46.0408 132.168C46.0251 132.162 46.0109 132.153 45.9989 132.142C45.9869 132.131 45.9774 132.117 45.9709 132.103C45.9644 132.088 45.9611 132.072 45.9611 132.056V130.367C45.9564 130.349 45.9563 130.329 45.9608 130.31C45.9653 130.292 45.9742 130.274 45.987 130.259C45.9998 130.244 46.016 130.232 46.0345 130.223C46.0529 130.215 46.0732 130.21 46.0937 130.21C46.1143 130.21 46.1345 130.215 46.153 130.223C46.1715 130.232 46.1877 130.244 46.2005 130.259C46.2132 130.274 46.2222 130.292 46.2267 130.31C46.2311 130.329 46.231 130.349 46.2264 130.367V132.056C46.2264 132.073 46.2228 132.089 46.2159 132.104C46.209 132.119 46.1988 132.133 46.1861 132.144C46.1733 132.156 46.1582 132.165 46.1417 132.17C46.1252 132.176 46.1077 132.178 46.0901 132.177Z" fill="white"/>
<path d="M45.3088 132.594C45.2801 132.592 45.2527 132.582 45.2306 132.565C45.2084 132.548 45.1926 132.525 45.1854 132.498C45.1783 132.472 45.1801 132.445 45.1907 132.42C45.2013 132.394 45.22 132.373 45.2443 132.359L46.8072 131.518C46.8214 131.508 46.8376 131.501 46.8548 131.498C46.8719 131.495 46.8896 131.495 46.9066 131.499C46.9236 131.503 46.9395 131.51 46.9533 131.52C46.9671 131.531 46.9784 131.543 46.9864 131.558C46.9967 131.572 47.0038 131.588 47.0072 131.604C47.0106 131.621 47.0103 131.638 47.0062 131.654C47.0022 131.671 46.9945 131.686 46.9837 131.7C46.9728 131.713 46.9591 131.725 46.9434 131.733L45.3805 132.594H45.3088Z" fill="white"/>
<path d="M50.8718 129.701C50.8246 129.711 50.7757 129.711 50.7284 129.701C50.6737 129.668 50.6294 129.622 50.6003 129.568C50.5713 129.513 50.5586 129.452 50.5635 129.392V129.048C50.5635 129.014 50.5779 128.982 50.6034 128.958C50.629 128.934 50.6636 128.921 50.6998 128.921C50.7359 128.921 50.7705 128.934 50.7961 128.958C50.8216 128.982 50.836 129.014 50.836 129.048V129.392C50.8261 129.42 50.8261 129.451 50.836 129.479C50.836 129.479 50.879 129.479 50.9292 129.479C51.0101 129.405 51.0735 129.316 51.1155 129.217C51.1575 129.119 51.177 129.013 51.1729 128.907V126.666C51.1747 126.633 51.1896 126.601 51.2147 126.578C51.2399 126.554 51.2736 126.54 51.3091 126.539C51.3453 126.539 51.3799 126.552 51.4054 126.576C51.431 126.6 51.4453 126.633 51.4453 126.666V128.907C51.4512 129.057 51.42 129.206 51.3541 129.343C51.2881 129.479 51.1893 129.6 51.0654 129.694C51.0023 129.711 50.936 129.713 50.8718 129.701Z" fill="white"/>
<path d="M49.4595 127.743V127.521C49.4906 126.961 49.6628 126.416 49.9619 125.931C50.261 125.445 50.6784 125.033 51.18 124.729C51.3581 124.586 51.579 124.498 51.8122 124.478C52.0455 124.458 52.2797 124.506 52.4825 124.616C52.6854 124.726 52.8469 124.892 52.9449 125.092C53.0429 125.292 53.0725 125.515 53.0297 125.731V125.805L49.4595 127.743ZM51.983 124.749C51.7445 124.76 51.5129 124.827 51.3091 124.944C50.8838 125.209 50.5238 125.556 50.253 125.962C49.9822 126.368 49.807 126.824 49.7391 127.299L52.7572 125.657C52.7688 125.499 52.7374 125.341 52.6659 125.197C52.5944 125.054 52.4852 124.929 52.3486 124.836C52.2372 124.777 52.111 124.747 51.983 124.749Z" fill="white"/>
<path d="M55.7038 127.117C55.6856 127.118 55.6674 127.116 55.6504 127.11C55.6334 127.104 55.618 127.094 55.6051 127.082C55.5923 127.07 55.5823 127.055 55.5758 127.04C55.5693 127.024 55.5665 127.007 55.5675 126.989V122.697C55.5629 122.678 55.5628 122.658 55.5673 122.639C55.5717 122.621 55.5807 122.603 55.5934 122.588C55.6062 122.573 55.6224 122.561 55.6409 122.552C55.6594 122.544 55.6797 122.54 55.7002 122.54C55.7207 122.54 55.741 122.544 55.7594 122.552C55.7779 122.561 55.7942 122.573 55.8069 122.588C55.8197 122.603 55.8286 122.621 55.8331 122.639C55.8376 122.658 55.8375 122.678 55.8328 122.697V126.989C55.8338 127.006 55.8312 127.022 55.8251 127.038C55.8191 127.053 55.8097 127.068 55.7976 127.079C55.7856 127.091 55.771 127.101 55.7549 127.108C55.7387 127.114 55.7213 127.117 55.7038 127.117Z" fill="white"/>
<path d="M55.3457 123.679H55.2884C55.2718 123.673 55.2569 123.663 55.2445 123.651C55.2322 123.639 55.2227 123.624 55.2166 123.608C55.2105 123.592 55.2081 123.576 55.2093 123.559C55.2105 123.542 55.2155 123.526 55.2238 123.511L55.697 122.475L56.2347 123.053C56.2584 123.079 56.2703 123.113 56.2676 123.147C56.2649 123.181 56.2479 123.213 56.2203 123.235C56.1928 123.257 56.1569 123.268 56.1206 123.266C56.0843 123.263 56.0505 123.247 56.0268 123.222L55.7759 122.946L55.4676 123.618C55.4549 123.638 55.4368 123.654 55.4154 123.664C55.394 123.675 55.3699 123.68 55.3457 123.679Z" fill="white"/>
<path d="M56.9443 126.451C56.9082 126.451 56.8735 126.438 56.848 126.414C56.8225 126.39 56.8081 126.357 56.8081 126.323V122.03C56.8081 121.996 56.8225 121.964 56.848 121.94C56.8735 121.916 56.9082 121.902 56.9443 121.902C56.9804 121.902 57.0151 121.916 57.0406 121.94C57.0662 121.964 57.0805 121.996 57.0805 122.03V126.323C57.0805 126.357 57.0662 126.39 57.0406 126.414C57.0151 126.438 56.9804 126.451 56.9443 126.451Z" fill="white"/>
<path d="M56.5502 123.013H56.5C56.4837 123.007 56.4689 122.998 56.4565 122.986C56.444 122.975 56.4341 122.961 56.4274 122.946C56.4207 122.931 56.4173 122.915 56.4175 122.899C56.4176 122.882 56.4213 122.866 56.4283 122.851L56.9086 121.808L57.4391 122.387C57.4519 122.399 57.4621 122.413 57.469 122.428C57.4759 122.444 57.4795 122.461 57.4795 122.478C57.4795 122.495 57.4759 122.511 57.469 122.527C57.4621 122.542 57.4519 122.557 57.4391 122.568C57.4271 122.58 57.4126 122.59 57.3966 122.596C57.3806 122.602 57.3633 122.606 57.3459 122.606C57.3285 122.606 57.3113 122.602 57.2953 122.596C57.2792 122.59 57.2648 122.58 57.2527 122.568L56.9946 122.293L56.6864 122.965C56.6713 122.985 56.6503 123 56.626 123.009C56.6017 123.017 56.5753 123.018 56.5502 123.013Z" fill="white"/>
<path d="M42.4269 136.86L16.2168 122.663V103.721L42.4269 117.926V136.86Z" fill="#E0E0E0"/>
<path d="M28.3325 114.77L30.304 115.84V111.358L28.3325 110.289V114.77Z" fill="#F5F5F5"/>
<path d="M30.304 111.358L56.5141 97.1606L54.5426 96.084L28.3325 110.288L30.304 111.358Z" fill="white"/>
<path d="M20.3677 115.443L26.6191 118.807C26.9808 119.028 27.282 119.326 27.4987 119.677C27.7153 120.028 27.8413 120.421 27.8665 120.826V124.452C27.8665 125.193 27.3073 125.495 26.6191 125.125L20.3677 121.761C20.0062 121.54 19.7054 121.242 19.4898 120.891C19.2743 120.54 19.1501 120.147 19.1274 119.742V116.122C19.1274 115.369 19.6866 115.099 20.3677 115.443Z" fill="#F5F5F5"/>
<path d="M19.8872 116.344L20.1238 116.472V120.496L19.8872 120.368V116.344Z" fill="#E0E0E0"/>
<path d="M20.8481 116.869L21.2639 117.098V121.115L20.8481 120.893V116.869Z" fill="#E0E0E0"/>
<path d="M21.8159 117.394L22.0597 117.522L22.0525 121.546L21.8159 121.418V117.394Z" fill="#E0E0E0"/>
<path d="M22.5469 117.785L23.0272 118.047L23.02 122.071L22.5469 121.802V117.785Z" fill="#E0E0E0"/>
<path d="M23.7515 118.444L23.988 118.572V122.595L23.7515 122.461V118.444Z" fill="#E0E0E0"/>
<path d="M24.4468 118.814L24.9558 119.097V123.114L24.4468 122.831V118.814Z" fill="#E0E0E0"/>
<path d="M25.687 119.494L25.9236 119.622V123.639L25.687 123.511V119.494Z" fill="#E0E0E0"/>
<path d="M26.2393 119.783L26.3611 119.85V123.867L26.2393 123.807V119.783Z" fill="#E0E0E0"/>
<path d="M25.25 119.271L25.3647 119.332V123.356L25.25 123.295V119.271Z" fill="#E0E0E0"/>
<path d="M23.2998 118.202L23.4145 118.262V122.286L23.2998 122.219V118.202Z" fill="#E0E0E0"/>
<path d="M22.2319 117.623L22.3538 117.69V121.707L22.2319 121.647V117.623Z" fill="#E0E0E0"/>
<path d="M21.4648 117.226L21.5867 117.293V121.317L21.4648 121.25V117.226Z" fill="#E0E0E0"/>
<path d="M20.4253 116.634L20.5472 116.701V120.718L20.4253 120.658V116.634Z" fill="#E0E0E0"/>
<path d="M26.6548 120.012L26.8914 120.146V124.163L26.6548 124.036V120.012Z" fill="#E0E0E0"/>
<path d="M62.8085 65.8518L42.4269 54.8032L22.0381 65.8518L42.4269 76.8937L62.8085 65.8518Z" fill="#F5F5F5"/>
<path d="M42.4268 114.77L62.8084 103.721V65.8521L42.4268 76.8939V114.77Z" fill="#EBEBEB"/>
<path d="M45.7893 108.486C45.6992 108.486 45.6104 108.465 45.5312 108.425C45.4192 108.349 45.33 108.247 45.2722 108.129C45.2144 108.011 45.1901 107.881 45.2015 107.752V105.733V105.585H45.309L46.9866 104.664V106.904C46.9825 107.193 46.9056 107.476 46.7623 107.731C46.619 107.986 46.4133 108.205 46.1621 108.371C46.0507 108.439 45.9221 108.479 45.7893 108.486ZM45.4667 105.881V107.745C45.4554 107.831 45.4671 107.917 45.501 107.997C45.5348 108.077 45.5896 108.148 45.6603 108.203C45.719 108.228 45.7837 108.238 45.8479 108.232C45.9121 108.226 45.9735 108.205 46.0259 108.169C46.24 108.026 46.416 107.839 46.5404 107.622C46.6647 107.405 46.734 107.164 46.7428 106.918V106.756H46.0976L45.9757 105.969L45.4667 105.881ZM46.327 106.501H46.7428V105.121L45.7463 105.673L46.241 105.754L46.327 106.501Z" fill="white"/>
<path d="M46.0902 110.087C46.0726 110.087 46.0552 110.083 46.0391 110.077C46.0229 110.07 46.0084 110.061 45.9963 110.049C45.9842 110.037 45.9749 110.023 45.9688 110.007C45.9628 109.992 45.9602 109.975 45.9611 109.959V108.276C45.9602 108.26 45.9628 108.244 45.9688 108.228C45.9749 108.213 45.9842 108.198 45.9963 108.186C46.0084 108.174 46.0229 108.165 46.0391 108.158C46.0552 108.152 46.0726 108.149 46.0902 108.149C46.1083 108.148 46.1265 108.15 46.1435 108.156C46.1605 108.162 46.1759 108.172 46.1888 108.184C46.2017 108.196 46.2117 108.21 46.2181 108.226C46.2246 108.242 46.2274 108.259 46.2264 108.276V109.959C46.2274 109.976 46.2246 109.993 46.2181 110.009C46.2117 110.025 46.2017 110.039 46.1888 110.051C46.1759 110.063 46.1605 110.073 46.1435 110.079C46.1265 110.085 46.1083 110.087 46.0902 110.087Z" fill="white"/>
<path d="M45.3088 110.511C45.2801 110.509 45.2527 110.499 45.2306 110.482C45.2084 110.464 45.1926 110.441 45.1854 110.415C45.1783 110.389 45.1801 110.361 45.1907 110.336C45.2013 110.311 45.22 110.29 45.2443 110.275L46.8072 109.427C46.8385 109.41 46.8758 109.406 46.9108 109.415C46.9457 109.423 46.9755 109.445 46.9936 109.474C47.0116 109.504 47.0165 109.539 47.0071 109.572C46.9977 109.604 46.9748 109.632 46.9434 109.649L45.3805 110.49C45.3595 110.504 45.3344 110.511 45.3088 110.511Z" fill="white"/>
<path d="M50.8719 107.611C50.8209 107.611 50.771 107.597 50.7285 107.57C50.6738 107.539 50.6293 107.494 50.6002 107.441C50.5711 107.387 50.5584 107.327 50.5637 107.267V106.924C50.5637 106.89 50.578 106.858 50.6035 106.834C50.6291 106.81 50.6637 106.796 50.6999 106.796C50.736 106.796 50.7706 106.81 50.7962 106.834C50.8217 106.858 50.8361 106.89 50.8361 106.924V107.267C50.8262 107.296 50.8262 107.326 50.8361 107.355C50.8666 107.363 50.8988 107.363 50.9293 107.355C51.0111 107.283 51.0753 107.195 51.1174 107.097C51.1595 107 51.1784 106.895 51.173 106.79V104.549C51.173 104.515 51.1874 104.483 51.2129 104.459C51.2385 104.435 51.2731 104.421 51.3092 104.421C51.3274 104.42 51.3456 104.423 51.3626 104.429C51.3796 104.435 51.395 104.444 51.4079 104.456C51.4207 104.468 51.4307 104.483 51.4372 104.499C51.4437 104.515 51.4465 104.532 51.4454 104.549V106.79C51.4513 106.939 51.4201 107.089 51.3542 107.225C51.2882 107.362 51.1894 107.482 51.0655 107.577C51.0048 107.602 50.9384 107.614 50.8719 107.611Z" fill="white"/>
<path d="M49.4595 105.679V105.464C49.4918 104.903 49.6644 104.358 49.9633 103.871C50.2623 103.385 50.6791 102.972 51.18 102.665C51.3597 102.525 51.5807 102.441 51.8131 102.423C52.0455 102.405 52.2783 102.454 52.4799 102.564C52.6816 102.674 52.8424 102.839 52.9407 103.038C53.039 103.236 53.07 103.458 53.0297 103.674V103.741L49.4595 105.679ZM51.983 102.692C51.7445 102.703 51.5129 102.77 51.3091 102.887C50.8847 103.151 50.5251 103.497 50.2544 103.902C49.9837 104.307 49.808 104.761 49.7391 105.235L52.7572 103.6C52.7702 103.442 52.7394 103.283 52.6678 103.139C52.5962 102.995 52.4863 102.871 52.3486 102.779C52.2409 102.708 52.1144 102.666 51.983 102.658V102.692Z" fill="white"/>
<path d="M55.7038 105.006C55.6676 105.006 55.633 104.993 55.6074 104.969C55.5819 104.945 55.5675 104.913 55.5675 104.879V100.586C55.5629 100.567 55.5628 100.547 55.5673 100.529C55.5717 100.51 55.5807 100.492 55.5934 100.477C55.6062 100.462 55.6224 100.45 55.6409 100.441C55.6594 100.433 55.6797 100.429 55.7002 100.429C55.7207 100.429 55.741 100.433 55.7594 100.441C55.7779 100.45 55.7942 100.462 55.8069 100.477C55.8197 100.492 55.8286 100.51 55.8331 100.529C55.8376 100.547 55.8375 100.567 55.8328 100.586V104.879C55.8329 104.911 55.8195 104.943 55.7955 104.967C55.7715 104.991 55.7386 105.005 55.7038 105.006Z" fill="white"/>
<path d="M55.3457 101.581H55.2884C55.2718 101.575 55.2569 101.565 55.2445 101.553C55.2322 101.541 55.2227 101.526 55.2166 101.511C55.2105 101.495 55.2081 101.478 55.2093 101.461C55.2105 101.444 55.2155 101.428 55.2238 101.413L55.697 100.377L56.2347 100.956C56.2584 100.979 56.2716 101.011 56.2716 101.043C56.2716 101.076 56.2584 101.107 56.2347 101.131C56.2082 101.153 56.1737 101.166 56.1379 101.166C56.1021 101.166 56.0675 101.153 56.0411 101.131L55.7902 100.855L55.4819 101.528C55.4678 101.549 55.4472 101.565 55.4228 101.575C55.3985 101.584 55.3716 101.587 55.3457 101.581Z" fill="white"/>
<path d="M56.9443 104.334C56.9088 104.332 56.8751 104.318 56.8499 104.295C56.8248 104.271 56.8098 104.239 56.8081 104.206V99.913C56.8081 99.8791 56.8225 99.8466 56.848 99.8226C56.8735 99.7986 56.9082 99.7852 56.9443 99.7852C56.9804 99.7852 57.0151 99.7986 57.0406 99.8226C57.0662 99.8466 57.0805 99.8791 57.0805 99.913V104.206C57.0788 104.239 57.0639 104.271 57.0387 104.295C57.0135 104.318 56.9799 104.332 56.9443 104.334Z" fill="white"/>
<path d="M56.55 100.922H56.4998C56.4833 100.916 56.4684 100.906 56.4558 100.894C56.4433 100.882 56.4334 100.868 56.4267 100.852C56.4201 100.836 56.4168 100.82 56.417 100.803C56.4172 100.786 56.421 100.769 56.4281 100.754L56.9084 99.7178L57.439 100.296C57.4517 100.308 57.4619 100.322 57.4688 100.338C57.4757 100.354 57.4793 100.37 57.4793 100.387C57.4793 100.404 57.4757 100.421 57.4688 100.436C57.4619 100.452 57.4517 100.466 57.439 100.478C57.413 100.499 57.3799 100.51 57.3458 100.51C57.3116 100.51 57.2785 100.499 57.2526 100.478L56.9945 100.202L56.6862 100.875C56.6705 100.894 56.6494 100.909 56.6253 100.917C56.6012 100.925 56.5751 100.927 56.55 100.922Z" fill="white"/>
<path d="M42.4269 114.77L22.0381 103.721V65.8521L42.4269 76.8939V114.77Z" fill="#E0E0E0"/>
<path d="M31.709 75.5683L33.6876 76.6381V72.1635L31.709 71.0869V75.5683Z" fill="#F5F5F5"/>
<path d="M33.6876 72.1634L54.0693 61.1148L52.0978 60.0449L31.709 71.0868L33.6876 72.1634Z" fill="white"/>
<path d="M26.1888 96.5012L32.4402 99.8656C32.8022 100.086 33.1033 100.384 33.3188 100.735C33.5344 101.086 33.6584 101.48 33.6805 101.884V105.504C33.6805 106.244 33.1285 106.547 32.4402 106.177L26.1888 102.813C25.826 102.593 25.5238 102.295 25.307 101.944C25.0902 101.593 24.9649 101.199 24.9414 100.794V97.1741C24.9486 96.4339 25.5006 96.1311 26.1888 96.5012Z" fill="#F5F5F5"/>
<path d="M25.7017 97.4097L25.9382 97.5375V101.561L25.7017 101.427V97.4097Z" fill="#E0E0E0"/>
<path d="M26.6694 97.9346L27.0781 98.1566V102.18L26.6694 101.952V97.9346Z" fill="#E0E0E0"/>
<path d="M27.6372 98.4526L27.8738 98.5872V102.604L27.6372 102.476V98.4526Z" fill="#E0E0E0"/>
<path d="M28.3687 98.8428L28.8418 99.1119V103.129L28.3687 102.867V98.8428Z" fill="#E0E0E0"/>
<path d="M29.5728 99.5024L29.8093 99.6303V103.654L29.5728 103.526V99.5024Z" fill="#E0E0E0"/>
<path d="M30.2681 99.8726L30.7771 100.155V104.179L30.2681 103.896V99.8726Z" fill="#E0E0E0"/>
<path d="M31.5083 100.552L31.7449 100.68V104.704L31.5083 104.569V100.552Z" fill="#E0E0E0"/>
<path d="M32.0605 100.848L32.1753 100.909V104.932L32.0605 104.865V100.848Z" fill="#E0E0E0"/>
<path d="M31.064 100.33L31.1858 100.397V104.421L31.064 104.354V100.33Z" fill="#E0E0E0"/>
<path d="M29.1138 99.2603L29.2356 99.3275V103.345L29.1138 103.284V99.2603Z" fill="#E0E0E0"/>
<path d="M28.0459 98.688L28.1678 98.7485V102.772L28.0459 102.705V98.688Z" fill="#E0E0E0"/>
<path d="M27.2856 98.291L27.4003 98.3516V102.375L27.2856 102.308V98.291Z" fill="#E0E0E0"/>
<path d="M26.2466 97.6992L26.3613 97.7598V101.784L26.2466 101.716V97.6992Z" fill="#E0E0E0"/>
<path d="M32.4692 101.077L32.713 101.205V105.222L32.4692 105.094V101.077Z" fill="#E0E0E0"/>
<path d="M22.2316 170.108L100.475 212.499C101.437 212.957 102.5 213.195 103.579 213.195C104.658 213.195 105.721 212.957 106.683 212.499L278.117 119.642C279.83 118.713 279.83 117.206 278.117 116.277L199.874 73.8863C198.913 73.4251 197.849 73.1846 196.769 73.1846C195.69 73.1846 194.626 73.4251 193.665 73.8863L22.2316 166.743C20.5182 167.672 20.5182 169.179 22.2316 170.108Z" fill="#455A64"/>
<path d="M64.5219 189.789C65.8559 190.421 67.3292 190.75 68.8233 190.75C70.3175 190.75 71.7908 190.421 73.1248 189.789C75.5121 188.497 75.5121 186.425 73.1248 185.113C71.7918 184.478 70.3181 184.147 68.8233 184.147C67.3286 184.147 65.8549 184.478 64.5219 185.113C62.1346 186.425 62.1346 188.511 64.5219 189.789Z" fill="#263238"/>
<path d="M101.944 212.499L23.7014 170.108C22.1672 169.273 22.0095 167.981 23.221 167.053C22.4558 167.621 21.8266 168.334 21.3745 169.145C20.9225 169.957 20.6576 170.849 20.5972 171.763V174.501C20.656 175.512 20.9677 176.496 21.507 177.373C22.0463 178.25 22.7981 178.995 23.7014 179.548L101.944 221.939C102.901 222.408 103.97 222.64 105.049 222.612V213.199C103.967 213.218 102.898 212.977 101.944 212.499Z" fill="#37474F"/>
<path d="M278.11 129.075C279.015 128.524 279.769 127.779 280.31 126.902C280.85 126.025 281.163 125.041 281.221 124.029V121.29C281.163 120.375 280.898 119.482 280.445 118.67C279.991 117.858 279.359 117.146 278.59 116.58C279.809 117.509 279.651 118.801 278.117 119.628L106.683 212.498C105.726 212.966 104.658 213.197 103.579 213.171V222.639C104.658 222.665 105.726 222.433 106.683 221.966L278.11 129.075Z" fill="#263238"/>
<path d="M113.365 203.718L38.4769 163.116C37.4446 162.558 37.4446 161.65 38.4769 161.098L183.234 82.6338C183.812 82.3584 184.451 82.2148 185.098 82.2148C185.746 82.2148 186.385 82.3584 186.962 82.6338L261.879 123.228C262.904 123.787 262.904 124.688 261.879 125.247L117.064 203.718C116.49 203.989 115.857 204.13 115.214 204.13C114.572 204.13 113.939 203.989 113.365 203.718Z" fill="white"/>
<path d="M83.1899 181.048L91.929 176.311L89.0184 174.737L80.2793 179.467L83.1899 181.048Z" fill="#6BE356"/>
<path d="M188.03 124.237L196.769 119.5L193.852 117.926L185.12 122.663L188.03 124.237Z" fill="#6BE356"/>
<path d="M205.501 114.77L214.241 110.033L211.33 108.458L202.591 113.189L205.501 114.77Z" fill="#6BE356"/>
<path d="M233.547 98.1838C233.886 98.3431 234.261 98.426 234.64 98.426C235.02 98.426 235.394 98.3431 235.733 98.1838C235.865 98.1416 235.979 98.0618 236.06 97.9556C236.141 97.8495 236.184 97.7222 236.184 97.5917C236.184 97.4612 236.141 97.3339 236.06 97.2277C235.979 97.1215 235.865 97.0418 235.733 96.9996C235.395 96.8371 235.02 96.7524 234.64 96.7524C234.26 96.7524 233.885 96.8371 233.547 96.9996C233.415 97.0418 233.301 97.1215 233.22 97.2277C233.139 97.3339 233.096 97.4612 233.096 97.5917C233.096 97.7222 233.139 97.8495 233.22 97.9556C233.301 98.0618 233.415 98.1416 233.547 98.1838Z" fill="#263238"/>
<path d="M237.038 107.476C237.715 107.798 238.463 107.966 239.221 107.966C239.98 107.966 240.727 107.798 241.404 107.476C242.608 106.804 242.608 105.761 241.404 105.108C240.727 104.786 239.98 104.619 239.221 104.619C238.463 104.619 237.715 104.786 237.038 105.108C235.834 105.761 235.834 106.824 237.038 107.476Z" fill="#263238"/>
<path d="M233.955 103.358C234.758 102.921 234.715 102.194 233.862 101.73L219.524 93.9447C219.063 93.7125 218.549 93.5866 218.025 93.5772C217.502 93.5679 216.984 93.6754 216.513 93.8909C215.71 94.3283 215.753 95.055 216.606 95.5193L230.987 103.304C231.443 103.53 231.949 103.652 232.465 103.661C232.98 103.67 233.49 103.567 233.955 103.358Z" fill="#263238"/>
<path d="M209.48 71.7871L209.968 71.518C209.631 72.6662 209.467 73.853 209.48 75.0438V76.6857C209.48 82.58 217.015 97.639 219.789 102.968C220.076 103.527 216.269 107.328 216.269 107.328L220.793 104.879C220.793 104.879 232.099 96.1318 232.099 88.9454V87.3036C232.099 80.0837 227.037 71.4911 220.793 68.1065C217.639 66.4041 214.792 66.3436 212.742 67.6355L208.441 69.9502L209.48 71.7871ZM215.137 77.298C215.137 73.9336 217.667 72.5407 220.793 74.2364C220.535 76.4098 224.765 83.1789 226.442 83.4279C226.442 86.7922 223.912 88.1851 220.793 86.4894C219.151 85.4801 217.787 84.1219 216.809 82.525C215.831 80.928 215.268 79.1373 215.165 77.298H215.137Z" fill="#6BE356"/>
<path d="M204.828 79.3164C204.957 86.5296 216.628 107.328 216.628 107.328C216.628 107.328 227.783 98.4327 227.661 91.2195V89.5777C227.532 82.3645 222.32 73.8459 216.011 70.5623C209.703 67.2786 204.699 70.4546 204.828 77.6746V79.3164ZM210.491 79.8412C210.434 76.4768 212.943 75.0436 216.09 76.6854C217.754 77.667 219.147 79.0029 220.157 80.5848C221.168 82.1666 221.766 83.9497 221.904 85.7894C221.969 89.1538 219.46 90.587 216.305 88.9452C214.644 87.9616 213.252 86.6252 212.242 85.0438C211.232 83.4623 210.632 81.6802 210.491 79.8412Z" fill="#6BE356"/>
<path opacity="0.1" d="M204.828 79.3164C204.957 86.5296 216.628 107.328 216.628 107.328C216.628 107.328 227.783 98.4327 227.661 91.2195V89.5777C227.532 82.3645 222.32 73.8459 216.011 70.5623C209.703 67.2786 204.699 70.4546 204.828 77.6746V79.3164ZM210.491 79.8412C210.434 76.4768 212.943 75.0436 216.09 76.6854C217.754 77.667 219.147 79.0029 220.157 80.5848C221.168 82.1666 221.766 83.9497 221.904 85.7894C221.969 89.1538 219.46 90.587 216.305 88.9452C214.644 87.9616 213.252 86.6252 212.242 85.0438C211.232 83.4623 210.632 81.6802 210.491 79.8412Z" fill="black"/>
<path d="M95.4922 175.517C102.74 179.434 119.731 176.587 133.445 169.152L171.119 148.744C184.833 141.308 190.066 132.117 182.804 128.208C175.542 124.298 158.537 127.158 144.808 134.586L107.206 154.968C93.4992 162.396 88.2514 171.621 95.4922 175.517Z" fill="#F0F0F0"/>
<path d="M205.179 4.42534H205.214L211.416 1.06096H211.466C215.373 -0.796173 220.592 -0.284783 226.213 3.14688C237.511 9.96984 246.135 25.7151 245.483 38.3046C245.153 44.5825 242.615 48.8889 238.694 50.7864H238.658L232.45 54.1508H232.407C228.5 56.0147 223.273 55.4966 217.646 52.0716C206.354 45.242 197.73 29.5034 198.382 16.9139C198.726 10.6293 201.3 6.32285 205.179 4.42534Z" fill="#37474F"/>
<path d="M232.765 53.976L238.68 50.7462H238.723C242.608 48.842 245.175 44.5356 245.505 38.2644C245.791 32.6526 244.236 26.415 241.425 20.6216L235.217 23.986C238.034 29.7794 239.59 36.017 239.296 41.6355C238.988 47.7586 236.522 52.0179 232.765 53.976Z" fill="#263238"/>
<path d="M217.674 52.0649C206.383 45.2352 197.759 29.4967 198.411 16.9072C199.064 4.31768 208.763 -0.358799 220.033 6.46416C231.303 13.2871 239.956 29.0324 239.303 41.6219C238.651 54.2114 228.966 58.8879 217.674 52.0649Z" fill="#455A64"/>
<path d="M227.138 51.1769C233.798 51.4797 234.88 44.4481 235.024 41.4202C235.597 30.3178 227.668 15.8509 217.71 9.82871C215.589 8.43376 213.119 7.57623 210.541 7.33907C203.888 7.03627 202.806 14.0678 202.655 17.0958C202.082 28.1982 210.004 42.665 219.969 48.7209C222.09 50.1159 224.559 50.9734 227.138 51.2105V51.1769Z" fill="#FAFAFA"/>
<path d="M217.552 31.347C217.631 31.3472 217.709 31.3335 217.782 31.3066C217.932 31.261 218.061 31.1704 218.151 31.0488C218.24 30.9272 218.284 30.7813 218.277 30.6338V14.5991C218.277 14.4207 218.201 14.2495 218.067 14.1233C217.932 13.9972 217.75 13.9263 217.56 13.9263C217.37 13.9263 217.187 13.9972 217.053 14.1233C216.918 14.2495 216.843 14.4207 216.843 14.5991V28.6824L208.864 19.0603C208.746 18.9175 208.572 18.8246 208.381 18.8019C208.19 18.7791 207.998 18.8285 207.846 18.9392C207.693 19.0498 207.594 19.2127 207.57 19.3918C207.546 19.571 207.599 19.7519 207.717 19.8947L217 31.0846C217.066 31.1642 217.149 31.2292 217.245 31.2746C217.34 31.32 217.445 31.3447 217.552 31.347Z" fill="#37474F"/>
<path d="M221.668 43.2098C221.701 43.216 221.735 43.216 221.768 43.2098C221.844 43.1879 221.908 43.1393 221.947 43.0741C221.986 43.0089 221.996 42.9321 221.976 42.8599L217.954 30.1493C217.931 30.077 217.879 30.0162 217.808 29.9802C217.738 29.9443 217.655 29.9361 217.578 29.9575C217.501 29.9789 217.436 30.0282 217.398 30.0944C217.359 30.1607 217.351 30.2385 217.373 30.3108L221.388 43.0214C221.408 43.0758 221.446 43.1231 221.496 43.1568C221.546 43.1905 221.606 43.209 221.668 43.2098Z" fill="#6BE356"/>
<path d="M217.782 27.4514C216.448 26.6506 215.309 27.2024 215.237 28.6827C215.241 29.4902 215.449 30.2852 215.842 31.0031C216.236 31.7211 216.805 32.3416 217.502 32.8142C218.829 33.6216 219.968 33.0699 220.047 31.5896C220.041 30.7815 219.833 29.986 219.44 29.2673C219.046 28.5485 218.478 27.9265 217.782 27.4514Z" fill="#6BE356"/>
<path d="M100.668 171.581L109.4 166.844L106.49 165.27L97.7578 170L100.668 171.581Z" fill="#6BE356"/>
<path d="M118.139 162.114L126.878 157.377L123.96 155.802L115.229 160.533L118.139 162.114Z" fill="#6BE356"/>
<path d="M114.548 160.183C114.548 164.139 111.594 168.93 107.945 170.949C106.002 172.005 104.253 172.039 103.049 171.245C102.563 170.887 102.164 170.436 101.879 169.922C101.593 169.408 101.427 168.843 101.393 168.264C101.638 168.156 101.877 168.037 102.109 167.907C105.759 165.936 108.712 161.125 108.712 157.141C108.716 156.847 108.696 156.552 108.655 156.26C109.202 155.988 109.803 155.826 110.42 155.785C111.037 155.743 111.657 155.822 112.239 156.018C113.673 156.583 114.548 158.043 114.548 160.183Z" fill="#263238"/>
<path d="M115.143 152.054L115.021 151.987C113.185 151.072 110.719 151.24 107.945 152.734C102.317 155.782 97.7505 163.197 97.7505 169.3C97.7505 172.368 98.9047 174.515 100.769 175.511C102.633 176.507 105.149 176.338 107.938 174.838C113.565 171.79 118.125 164.368 118.125 158.265C118.132 155.197 116.999 153.05 115.143 152.054ZM107.974 170.935C106.024 171.992 104.274 172.025 103.07 171.225C102.009 170.552 101.364 169.206 101.364 167.355C101.364 163.406 104.325 158.608 107.974 156.589C109.637 155.688 111.149 155.533 112.275 155.997C113.666 156.556 114.54 158.016 114.54 160.169C114.548 164.153 111.594 168.964 107.945 170.949L107.974 170.935Z" fill="#37474F"/>
<path d="M112.612 156.179L112.533 156.139C111.343 155.54 109.73 155.654 107.945 156.616C104.296 158.595 101.335 163.406 101.335 167.382C101.335 169.401 102.052 170.747 103.292 171.42C104.532 172.093 106.16 171.958 107.945 170.976C111.594 168.997 114.548 164.186 114.548 160.21C114.548 158.218 113.809 156.818 112.612 156.179ZM107.945 169.536C106.382 170.383 104.977 170.41 104.002 169.764C103.156 169.206 102.633 168.136 102.633 166.656C102.733 164.926 103.266 163.243 104.189 161.743C105.112 160.243 106.399 158.969 107.945 158.023C108.447 157.694 109.024 157.479 109.63 157.396C110.236 157.313 110.855 157.364 111.436 157.545C112.555 157.996 113.257 159.167 113.257 160.909C113.157 162.638 112.624 164.32 111.701 165.819C110.778 167.318 109.491 168.592 107.945 169.536Z" fill="#6BE356"/>
<path d="M135.61 152.64L144.349 147.909L141.439 146.328L132.7 151.065L135.61 152.64Z" fill="#6BE356"/>
<path d="M153.088 143.172L161.82 138.442L158.909 136.861L150.17 141.598L153.088 143.172Z" fill="#6BE356"/>
<path d="M170.559 133.705L179.291 128.975L176.381 127.394L167.642 132.131L170.559 133.705Z" fill="#6BE356"/>
<path d="M127.079 89.6788C127.17 89.5643 127.298 89.4801 127.444 89.4384C127.59 89.3967 127.746 89.3997 127.89 89.447C128.034 89.4942 128.158 89.5832 128.244 89.7012C128.33 89.8191 128.374 89.9597 128.37 90.1027C128.426 90.4857 128.384 90.8757 128.248 91.2407C128.112 91.6056 127.886 91.9351 127.588 92.202C127.015 92.6663 126.434 92.4779 126.298 91.7781C126.242 91.3951 126.284 91.0053 126.42 90.6404C126.556 90.2755 126.782 89.946 127.079 89.6788Z" fill="#6BE356"/>
<path d="M133.804 92.6526L127.961 89.4834L126.678 92.3835L132.542 95.5595L133.804 92.6526Z" fill="#6BE356"/>
<path d="M132.908 92.8344C133.481 92.3768 134.055 92.5652 134.198 93.265C134.251 93.6474 134.207 94.0362 134.07 94.3997C133.933 94.7633 133.707 95.0914 133.409 95.3577C132.836 95.8219 132.255 95.6335 132.119 94.9337C132.067 94.5503 132.111 94.1607 132.248 93.7962C132.385 93.4316 132.611 93.1022 132.908 92.8344Z" fill="#6BE356"/>
<path d="M177.814 119.373C177.814 119.507 177.814 119.629 177.814 119.763C177.814 120.032 177.814 120.308 177.814 120.584C176.653 120.12 175.14 120.274 173.477 121.176C169.828 123.154 166.867 127.965 166.867 131.942C166.867 133.786 167.512 135.118 168.573 135.811C168.276 136.01 167.967 136.194 167.649 136.363L167.312 136.524L166.301 140.097L160.451 137.036C158.601 136.033 157.461 133.893 157.461 130.839C157.461 124.736 162.021 117.321 167.649 114.266C170.43 112.758 172.947 112.604 174.818 113.593L180.553 116.607L180.675 116.675L177.814 119.373Z" fill="#455A64"/>
<path d="M180.668 116.614L180.546 116.547C178.711 115.631 176.245 115.8 173.47 117.293C167.843 120.342 163.276 127.757 163.276 133.86C163.276 136.928 164.43 139.074 166.294 140.07C168.158 141.066 170.674 140.898 173.463 139.397C179.091 136.349 183.65 128.927 183.65 122.825C183.672 119.756 182.518 117.61 180.668 116.614ZM173.499 135.495C171.549 136.551 169.8 136.585 168.595 135.784C167.534 135.111 166.889 133.765 166.889 131.915C166.889 127.965 169.85 123.168 173.499 121.149C175.162 120.247 176.675 120.093 177.836 120.557C179.227 121.115 180.102 122.576 180.102 124.729C180.087 128.712 177.119 133.523 173.47 135.495H173.499Z" fill="#37474F"/>
<path d="M180.087 124.755C180.087 128.712 177.133 133.503 173.484 135.521C171.541 136.578 169.792 136.611 168.588 135.817C168.102 135.459 167.703 135.008 167.418 134.494C167.132 133.98 166.967 133.415 166.932 132.837C167.177 132.729 167.416 132.61 167.649 132.48C171.298 130.508 174.251 125.697 174.251 121.714C174.255 121.419 174.236 121.125 174.194 120.833C174.741 120.561 175.342 120.399 175.959 120.357C176.576 120.316 177.196 120.395 177.778 120.59C179.198 121.156 180.087 122.602 180.087 124.755Z" fill="#263238"/>
<path d="M178.137 120.739L178.058 120.692C176.868 120.099 175.248 120.207 173.47 121.176C169.821 123.154 166.86 127.959 166.86 131.942C166.86 133.961 167.577 135.306 168.818 135.979C170.058 136.652 171.685 136.511 173.47 135.528C177.119 133.557 180.073 128.746 180.073 124.762C180.087 122.777 179.37 121.385 178.137 120.739ZM173.47 134.088C171.9 134.943 170.495 134.97 169.527 134.324C168.674 133.765 168.158 132.696 168.158 131.215C168.258 129.486 168.792 127.803 169.715 126.303C170.638 124.803 171.924 123.528 173.47 122.582C174.804 121.856 176.022 121.728 176.954 122.105C178.073 122.555 178.775 123.726 178.775 125.469C178.676 127.196 178.143 128.877 177.222 130.374C176.3 131.872 175.015 133.145 173.47 134.088Z" fill="#6BE356"/>
<path d="M167.641 126.768L184.13 117.832C186.044 116.789 179.829 110.699 175.205 110.289C172.659 110 170.077 110.23 167.634 110.962C167.634 110.962 171.154 115.194 170.552 117.596C169.95 119.999 167.641 126.768 167.641 126.768Z" fill="#6BE356"/>
<path d="M144.349 101.515C144.349 101.515 168.251 112.832 169.283 113.512C170.316 114.192 169.283 122.084 167.642 126.768C166 131.451 163.476 138.651 162.465 140.669C161.455 142.688 160.136 143.442 157.712 144.754L140.507 154.086L117.214 156.751L107.966 152.041L110.375 137.836C110.375 137.836 135.13 125.476 138.521 123.639C141.912 121.802 151.941 113.182 144.349 101.515Z" fill="#6BE356"/>
<path opacity="0.2" d="M144.349 101.515C144.349 101.515 168.251 112.832 169.283 113.512C170.316 114.192 169.283 122.084 167.642 126.768C166 131.451 163.476 138.651 162.465 140.669C161.455 142.688 160.136 143.442 157.712 144.754L140.507 154.086L117.214 156.751L107.966 152.041L110.375 137.836C110.375 137.836 135.13 125.476 138.521 123.639C141.912 121.802 151.941 113.182 144.349 101.515Z" fill="black"/>
<path d="M169.742 124.069C171.893 118.646 173.499 114.151 173.226 111.116C172.896 107.516 171.463 104.576 165.14 103.096C158.816 101.615 149.977 101.642 149.977 101.642L147.289 103.102C147.289 103.102 165.469 112.994 167.534 114.07C168.796 114.743 170.144 117.71 167.67 126.774L168.093 127.003C168.301 127.124 169.054 125.812 169.742 124.069Z" fill="#6BE356"/>
<path opacity="0.3" d="M169.742 124.069C171.893 118.646 173.499 114.151 173.226 111.116C172.896 107.516 171.463 104.576 165.14 103.096C158.816 101.615 149.977 101.642 149.977 101.642L147.289 103.102C147.289 103.102 165.469 112.994 167.534 114.07C168.796 114.743 170.144 117.71 167.67 126.774L168.093 127.003C168.301 127.124 169.054 125.812 169.742 124.069Z" fill="white"/>
<path d="M155.97 107.826L158.91 106.252C158.91 106.252 158.738 96.69 154.451 94.3686C150.164 92.0472 135.61 93.6284 135.61 93.6284L132.7 95.2029L155.97 107.826Z" fill="#6BE356"/>
<path d="M146.436 96.5552C145.038 97.3156 145.038 98.5402 146.436 99.2938C147.22 99.6684 148.087 99.8637 148.966 99.8637C149.846 99.8637 150.713 99.6684 151.497 99.2938C152.888 98.5402 152.888 97.3088 151.497 96.5552C150.712 96.1837 149.845 95.9902 148.966 95.9902C148.087 95.9902 147.221 96.1837 146.436 96.5552Z" fill="#F0F0F0"/>
<path d="M150.909 101.124C149.927 101.663 149.927 102.531 150.909 103.062C151.464 103.329 152.078 103.468 152.701 103.468C153.324 103.468 153.939 103.329 154.494 103.062C155.483 102.531 155.483 101.663 154.494 101.124C153.938 100.861 153.324 100.724 152.701 100.724C152.079 100.724 151.465 100.861 150.909 101.124Z" fill="#F0F0F0"/>
<path d="M139.646 95.3374C138.657 95.8689 138.657 96.7369 139.646 97.2752C140.202 97.5385 140.816 97.6756 141.439 97.6756C142.061 97.6756 142.675 97.5385 143.231 97.2752C144.22 96.7369 144.22 95.8689 143.231 95.3374C142.676 95.071 142.062 94.9321 141.439 94.9321C140.815 94.9321 140.201 95.071 139.646 95.3374Z" fill="#F0F0F0"/>
<path d="M156.429 105.054C157.003 104.589 157.576 104.778 157.72 105.478C157.772 105.861 157.729 106.251 157.592 106.615C157.455 106.98 157.228 107.309 156.931 107.577C156.84 107.692 156.712 107.776 156.566 107.817C156.42 107.859 156.264 107.856 156.12 107.809C155.976 107.762 155.852 107.673 155.766 107.555C155.68 107.437 155.636 107.296 155.641 107.153C155.585 106.77 155.628 106.379 155.765 106.014C155.902 105.649 156.13 105.32 156.429 105.054Z" fill="#6BE356"/>
<path d="M163.118 108.028L157.268 104.859L155.992 107.759L161.849 110.928L163.118 108.028Z" fill="#6BE356"/>
<path d="M162.215 108.21C162.306 108.095 162.434 108.011 162.579 107.969C162.725 107.927 162.881 107.93 163.025 107.978C163.169 108.025 163.293 108.114 163.379 108.232C163.466 108.35 163.51 108.49 163.505 108.633C163.56 109.017 163.517 109.407 163.379 109.772C163.242 110.137 163.015 110.466 162.716 110.733C162.143 111.197 161.569 111.002 161.426 110.309C161.373 109.925 161.416 109.536 161.553 109.171C161.69 108.806 161.917 108.477 162.215 108.21Z" fill="#6BE356"/>
<path d="M162.215 108.21C162.306 108.095 162.434 108.011 162.579 107.969C162.725 107.927 162.881 107.93 163.025 107.978C163.169 108.025 163.293 108.114 163.379 108.232C163.466 108.35 163.51 108.49 163.505 108.633C163.56 109.017 163.517 109.407 163.379 109.772C163.242 110.137 163.015 110.466 162.716 110.733C162.143 111.197 161.569 111.002 161.426 110.309C161.373 109.925 161.416 109.536 161.553 109.171C161.69 108.806 161.917 108.477 162.215 108.21Z" fill="black"/>
<path d="M112.289 154.8C112.289 154.934 112.289 155.055 112.289 155.19C112.289 155.459 112.289 155.735 112.289 156.011C111.128 155.546 109.615 155.701 107.988 156.603C104.339 158.581 101.378 163.392 101.378 167.369C101.378 169.213 102.023 170.545 103.084 171.238C102.786 171.437 102.478 171.621 102.159 171.79L101.822 171.951L100.812 175.524L94.9617 172.463C93.112 171.46 91.9722 169.32 91.9722 166.265C91.9722 160.162 96.5317 152.747 102.159 149.692C104.941 148.185 107.457 148.03 109.328 149.02L115.064 152.034L115.186 152.101L112.289 154.8Z" fill="#455A64"/>
<path d="M94.8401 144.121L90.4741 158.325L99.2132 163.063L103.737 148.946L94.8401 144.121Z" fill="#6BE356"/>
<path opacity="0.2" d="M94.8401 144.121L90.4741 158.325L99.2132 163.063L103.737 148.946L94.8401 144.121Z" fill="black"/>
<path d="M94.8398 144.121C94.8398 144.121 99.7937 148.071 103.737 148.946C108.913 150.123 117.143 150.251 120.061 150.439C124.52 150.729 127.889 150.722 129.466 150.191C131.51 149.518 137.001 146.523 138.521 145.702C141.432 144.128 142.672 137.931 134.65 136.235C129.225 135.18 123.7 134.65 118.161 134.654L94.8398 144.121Z" fill="#6BE356"/>
<path d="M144.242 142.304C143.993 142.889 143.824 143.502 143.74 144.128C143.509 144.778 143.455 145.472 143.582 146.146C144.129 146.995 144.989 147.624 145.998 147.916C146.726 148.068 147.478 148.077 148.21 147.944C148.941 147.811 149.636 147.538 150.25 147.142C151.734 146.308 152.852 145.298 154.96 144.733C156.466 144.434 157.885 143.83 159.118 142.964C160.286 142.082 161.849 139.646 159.612 139.081C157.376 138.516 152.515 140.508 148.085 140.689L144.242 142.304Z" fill="#37474F"/>
<path d="M144.242 139.707V142.816C144.377 143.165 144.613 143.472 144.923 143.704C145.233 143.935 145.605 144.082 145.998 144.128C146.358 144.177 146.726 144.14 147.066 144.02C147.603 143.828 148.069 143.492 148.405 143.054C148.741 142.617 148.934 142.096 148.959 141.557L149.088 139.707H144.242Z" fill="#FFA8A7"/>
<path d="M150.551 120.483C150.551 124.352 149.389 141.08 149.389 141.08C149.389 141.08 147.705 143.098 144.041 141.08L142.808 122.387L150.551 120.483Z" fill="#37474F"/>
<path d="M131.337 136.968L142.808 130.765C143.278 130.533 143.671 130.185 143.946 129.759C144.221 129.333 144.366 128.844 144.366 128.346C144.366 127.847 144.221 127.359 143.946 126.932C143.671 126.506 143.278 126.158 142.808 125.927L134.262 121.297C133.781 121.068 133.249 120.949 132.71 120.949C132.171 120.949 131.639 121.068 131.158 121.297L119.688 127.501C119.22 127.734 118.828 128.083 118.555 128.509C118.282 128.935 118.138 129.423 118.138 129.92C118.138 130.417 118.282 130.905 118.555 131.331C118.828 131.758 119.22 132.106 119.688 132.339L128.233 136.968C128.714 137.197 129.246 137.316 129.785 137.316C130.324 137.316 130.856 137.197 131.337 136.968Z" fill="#6BE356"/>
<path d="M131.337 136.968L142.808 130.765C143.278 130.533 143.671 130.185 143.946 129.759C144.221 129.333 144.366 128.844 144.366 128.346C144.366 127.847 144.221 127.359 143.946 126.932C143.671 126.506 143.278 126.158 142.808 125.927L134.262 121.297C133.781 121.068 133.249 120.949 132.71 120.949C132.171 120.949 131.639 121.068 131.158 121.297L119.688 127.501C119.22 127.734 118.828 128.083 118.555 128.509C118.282 128.935 118.138 129.423 118.138 129.92C118.138 130.417 118.282 130.905 118.555 131.331C118.828 131.758 119.22 132.106 119.688 132.339L128.233 136.968C128.714 137.197 129.246 137.316 129.785 137.316C130.324 137.316 130.856 137.197 131.337 136.968Z" fill="white"/>
<path d="M119.688 129.183L128.233 133.813C128.714 134.041 129.246 134.161 129.785 134.161C130.325 134.161 130.856 134.041 131.337 133.813L142.808 127.609C142.995 127.549 143.158 127.436 143.273 127.285C143.388 127.134 143.45 126.953 143.45 126.768C143.45 126.582 143.388 126.401 143.273 126.25C143.158 126.099 142.995 125.986 142.808 125.927L134.262 121.297C133.781 121.068 133.25 120.949 132.71 120.949C132.171 120.949 131.639 121.068 131.158 121.297L119.688 127.501C119.5 127.561 119.338 127.674 119.223 127.825C119.107 127.976 119.045 128.157 119.045 128.342C119.045 128.528 119.107 128.709 119.223 128.86C119.338 129.01 119.5 129.124 119.688 129.183Z" fill="#6BE356"/>
<path d="M126.677 88.0033L125.222 93.6353L118.971 93.9919L120.318 86.1865L126.677 88.0033Z" fill="#FFA8A7"/>
<path d="M132.771 83.7642C132.771 83.7642 133.488 86.1461 133.194 86.2807C132.743 86.3453 132.283 86.3453 131.832 86.2807L132.771 83.7642Z" fill="#F28F8F"/>
<path d="M131.574 76.1608C132.578 77.2711 133.496 79.0946 132.786 83.5624C132.012 88.4475 131.051 89.0127 130.277 89.4837C129.266 90.1028 125.222 89.7731 124.083 88.9925C122.713 88.0573 120.598 85.0899 120.097 82.1629C119.509 78.7245 120.735 74.9093 123.43 74.2566C127.223 73.3347 130.721 75.2188 131.574 76.1608Z" fill="#FFA8A7"/>
<path d="M119.688 87.7678C120.656 88.7098 122.641 88.9655 123.889 89.1808C125.136 89.3961 128.972 89.6316 130.104 87.068C131.237 84.5043 130.463 82.6606 131.854 82.0416C133.244 81.4225 134.635 81.0188 135.001 80.6958C135.366 80.3729 135.374 76.1539 131.639 73.9671C127.904 71.7802 122.183 71.2756 118.419 75.7098C115.566 79.1348 116.734 84.8744 119.688 87.7678Z" fill="#455A64"/>
<path d="M123.452 89.2145C124.419 89.2952 127.481 88.8444 128.405 87.6601C129.33 86.4759 129.703 84.3563 129.839 83.2461C129.852 82.8088 130.023 82.3886 130.324 82.0547C130.625 81.7208 131.038 81.4931 131.495 81.4091C132.42 81.1332 134.463 80.1912 134.463 80.1912V79.6664C135.122 79.6275 135.783 79.6275 136.442 79.6664C136.872 79.7404 136.636 80.3392 135.546 80.8574C134.456 81.3755 131.467 82.3781 131.008 82.7212C130.549 83.0644 130.334 84.5111 129.968 86.0519C129.603 87.5928 128.47 89.8941 123.452 89.2145Z" fill="#37474F"/>
<path d="M132.055 95.5867L135.639 93.6555C135.983 92.6798 135.431 92.1886 134.456 92.2492C133.481 92.3098 133.782 91.4216 133.187 91.1726C132.406 90.8362 131.961 91.0246 131.61 90.8698C131.259 90.7151 131.108 90.3248 130.649 90.2777C128.599 90.096 127.201 92.8413 127.201 92.8413L132.055 95.5867Z" fill="#F28F8F"/>
<path d="M107.723 120.295C107.723 120.295 123.559 112.927 126.319 111.736C129.079 110.545 133.409 108.815 135.711 108.815C136.61 108.885 137.452 109.257 138.083 109.863C138.714 110.468 139.091 111.267 139.145 112.113C139.174 113.41 139.095 114.709 138.908 115.995C134.557 117.335 130.111 118.385 125.602 119.137C119.014 120.214 107.723 120.295 107.723 120.295Z" fill="#37474F"/>
<path d="M109.443 116.035C109.443 119.09 109.135 122.266 110.49 124.5C111.845 126.734 119.186 131.901 126.097 130.818C130.613 130.105 144.02 124.311 144.02 124.311C144.02 124.311 150.522 122.071 150.551 120.476C150.594 118.128 150.422 114.817 144.751 114.958C139.582 115.086 124.333 118.074 124.333 118.074L109.443 116.035Z" fill="#455A64"/>
<path d="M113.866 91.8319C116.318 89.4297 117.974 89.2279 119.15 89.5239C121.852 90.2498 124.468 91.2328 126.957 92.4577C126.957 92.4577 126.011 101.057 130.491 103.533V116.937C130.491 116.937 130.355 118.39 128.405 119.837C126.685 121.109 122.792 122.394 118.146 122.031C112.626 121.6 109.443 116.035 109.443 116.035C109.443 116.035 109.3 105.074 110.081 100.721C110.999 95.6404 113.02 92.6663 113.866 91.8319Z" fill="#455A64"/>
<path d="M130.491 104.186C130.491 104.186 127.781 102.167 126.957 99.543C126.957 99.543 127.28 103.661 130.491 105.747V104.186Z" fill="#37474F"/>
<path d="M155.576 110.511C156.863 110.561 158.129 110.192 159.161 109.468C159.161 109.468 160.408 107.194 161.942 107.389C161.942 107.389 162.215 106.42 161.584 106.104C160.953 105.787 160.681 105.875 160.422 105.539C160.164 105.202 160.136 104.576 158.989 104.576C158.516 104.576 158.58 104.26 157.433 104.132C156.286 104.004 155.153 106.487 154.314 106.487L155.576 110.511Z" fill="#FFA8A7"/>
<path d="M126.957 92.4575C130.893 93.0295 132.32 94.1262 133.754 95.3711C135.187 96.6159 143.962 104.879 143.962 104.879L154.587 106.312C155.145 106.736 155.555 107.308 155.763 107.954C156.193 109.125 155.806 110.403 155.397 110.706C155.397 110.706 144.858 111.298 142.787 110.928C140.715 110.558 130.456 104.166 130.456 104.166C129.475 103.472 128.653 102.6 128.037 101.603C127.422 100.605 127.025 99.5022 126.871 98.3586C126.205 94.3012 126.957 92.4575 126.957 92.4575Z" fill="#455A64"/>
<path d="M117.508 127.999L101.227 146.651C101.047 146.673 100.865 146.684 100.682 146.685C100.037 146.694 99.3988 146.553 98.8256 146.274L85.0754 138.819L84.1434 138.314C83.6344 138.038 83.2114 136.908 83.2114 135.791V132.649C83.2109 129.421 84.1156 126.249 85.8346 123.454C87.5536 120.658 90.0263 118.336 93.0044 116.722L109.421 107.826L126.892 117.294L117.508 127.999Z" fill="#6BE356"/>
<g opacity="0.1">
<path d="M117.508 127.999L101.227 146.651C101.047 146.673 100.865 146.684 100.682 146.685C100.037 146.694 99.3988 146.553 98.8256 146.274L85.0754 138.819L84.1434 138.314C83.6344 138.038 83.2114 136.908 83.2114 135.791V132.649C83.2109 129.421 84.1156 126.249 85.8346 123.454C87.5536 120.658 90.0263 118.336 93.0044 116.722L109.421 107.826L126.892 117.294L117.508 127.999Z" fill="black"/>
</g>
<path d="M111.895 134.432L126.871 117.3L109.4 107.833L92.9904 116.722C90.8677 117.875 88.995 119.393 87.4702 121.196L111.895 134.432Z" fill="#6BE356"/>
<path d="M126.871 131.054C126.871 132.171 126.455 133.301 125.939 133.577L125.007 134.082L102.525 146.267C102.116 146.474 101.668 146.605 101.206 146.651C101.025 146.672 100.843 146.684 100.661 146.685V142.116C100.661 138.887 101.566 135.715 103.286 132.919C105.007 130.123 107.481 127.802 110.461 126.189L112.318 125.186L126.871 117.293V131.054Z" fill="#6BE356"/>
<g opacity="0.2">
<path d="M126.871 131.054C126.871 132.171 126.455 133.301 125.939 133.577L125.007 134.082L102.525 146.267C102.116 146.474 101.668 146.605 101.206 146.651C101.025 146.672 100.843 146.684 100.661 146.685V142.116C100.661 138.887 101.566 135.715 103.286 132.919C105.007 130.123 107.481 127.802 110.461 126.189L112.318 125.186L126.871 117.293V131.054Z" fill="black"/>
</g>
<path d="M131.696 154.134L140.493 154.107L153.082 147.284L140.751 155.648L131.467 155.769L131.696 154.134Z" fill="#E0E0E0"/>
<path d="M110.339 165.882C110.339 165.882 126.197 160.27 127.545 159.611C129.127 158.701 130.628 157.672 132.033 156.536C132.32 156.18 132.454 155.736 132.411 155.291C132.367 154.847 132.148 154.434 131.796 154.133C131.796 154.133 125.344 153.858 123.688 154.335C122.763 154.598 107.837 159.093 107.837 159.093L110.339 165.882Z" fill="#E0E0E0"/>
<path d="M109.63 159.611C108.318 158.554 106.999 158.992 106.676 160.58C106.553 161.456 106.652 162.347 106.964 163.18C107.277 164.014 107.795 164.767 108.475 165.377C109.787 166.434 111.106 166.003 111.429 164.408C111.552 163.532 111.453 162.641 111.14 161.808C110.827 160.974 110.31 160.222 109.63 159.611Z" fill="#455A64"/>
</svg>
