<svg id="ev8Kzh5lUjH1" xmlns="http://www.w3.org/2000/svg" xmlns:xlink="http://www.w3.org/1999/xlink" viewBox="0 0 289 91" shape-rendering="geometricPrecision" text-rendering="geometricPrecision"><defs><filter id="ev8Kzh5lUjH5-filter" x="-150%" width="400%" y="-150%" height="400%"><feGaussianBlur id="ev8Kzh5lUjH5-filter-blur-0" stdDeviation="25,25" result="result"/></filter><filter id="ev8Kzh5lUjH7-filter" x="-150%" width="400%" y="-150%" height="400%"><feGaussianBlur id="ev8Kzh5lUjH7-filter-blur-0" stdDeviation="25,25" result="result"/></filter><filter id="ev8Kzh5lUjH9-filter" x="-150%" width="400%" y="-150%" height="400%"><feGaussianBlur id="ev8Kzh5lUjH9-filter-blur-0" stdDeviation="25,25" result="result"/></filter><filter id="ev8Kzh5lUjH11-filter" x="-150%" width="400%" y="-150%" height="400%"><feGaussianBlur id="ev8Kzh5lUjH11-filter-blur-0" stdDeviation="25,25" result="result"/></filter><filter id="ev8Kzh5lUjH13-filter" x="-150%" width="400%" y="-150%" height="400%"><feGaussianBlur id="ev8Kzh5lUjH13-filter-blur-0" stdDeviation="25,25" result="result"/></filter><filter id="ev8Kzh5lUjH15-filter" x="-150%" width="400%" y="-150%" height="400%"><feGaussianBlur id="ev8Kzh5lUjH15-filter-blur-0" stdDeviation="25,25" result="result"/></filter><filter id="ev8Kzh5lUjH17-filter" x="-150%" width="400%" y="-150%" height="400%"><feGaussianBlur id="ev8Kzh5lUjH17-filter-blur-0" stdDeviation="25,25" result="result"/></filter><filter id="ev8Kzh5lUjH19-filter" x="-150%" width="400%" y="-150%" height="400%"><feGaussianBlur id="ev8Kzh5lUjH19-filter-blur-0" stdDeviation="25,25" result="result"/></filter><filter id="ev8Kzh5lUjH21-filter" x="-150%" width="400%" y="-150%" height="400%"><feGaussianBlur id="ev8Kzh5lUjH21-filter-blur-0" stdDeviation="25,25" result="result"/></filter><filter id="ev8Kzh5lUjH23-filter" x="-150%" width="400%" y="-150%" height="400%"><feGaussianBlur id="ev8Kzh5lUjH23-filter-blur-0" stdDeviation="25,25" result="result"/></filter><filter id="ev8Kzh5lUjH25-filter" x="-150%" width="400%" y="-150%" height="400%"><feGaussianBlur id="ev8Kzh5lUjH25-filter-blur-0" stdDeviation="25,25" result="result"/></filter><filter id="ev8Kzh5lUjH27-filter" x="-150%" width="400%" y="-150%" height="400%"><feGaussianBlur id="ev8Kzh5lUjH27-filter-drop-shadow-0-blur" in="SourceAlpha" stdDeviation="0.5,0.5"/><feOffset id="ev8Kzh5lUjH27-filter-drop-shadow-0-offset" dx="0" dy="1" result="tmp"/><feFlood id="ev8Kzh5lUjH27-filter-drop-shadow-0-flood" flood-color="#000"/><feComposite id="ev8Kzh5lUjH27-filter-drop-shadow-0-composite" operator="in" in2="tmp"/><feMerge id="ev8Kzh5lUjH27-filter-drop-shadow-0-merge" result="result"><feMergeNode id="ev8Kzh5lUjH27-filter-drop-shadow-0-merge-node-1"/><feMergeNode id="ev8Kzh5lUjH27-filter-drop-shadow-0-merge-node-2" in="SourceGraphic"/></feMerge></filter><filter id="ev8Kzh5lUjH29-filter" x="-150%" width="400%" y="-150%" height="400%"><feGaussianBlur id="ev8Kzh5lUjH29-filter-drop-shadow-0-blur" in="SourceAlpha" stdDeviation="0.5,0.5"/><feOffset id="ev8Kzh5lUjH29-filter-drop-shadow-0-offset" dx="0" dy="1" result="tmp"/><feFlood id="ev8Kzh5lUjH29-filter-drop-shadow-0-flood" flood-color="#000"/><feComposite id="ev8Kzh5lUjH29-filter-drop-shadow-0-composite" operator="in" in2="tmp"/><feMerge id="ev8Kzh5lUjH29-filter-drop-shadow-0-merge" result="result"><feMergeNode id="ev8Kzh5lUjH29-filter-drop-shadow-0-merge-node-1"/><feMergeNode id="ev8Kzh5lUjH29-filter-drop-shadow-0-merge-node-2" in="SourceGraphic"/></feMerge></filter><filter id="ev8Kzh5lUjH31-filter" x="-150%" width="400%" y="-150%" height="400%"><feGaussianBlur id="ev8Kzh5lUjH31-filter-drop-shadow-0-blur" in="SourceAlpha" stdDeviation="0.5,0.5"/><feOffset id="ev8Kzh5lUjH31-filter-drop-shadow-0-offset" dx="0" dy="1" result="tmp"/><feFlood id="ev8Kzh5lUjH31-filter-drop-shadow-0-flood" flood-color="#000"/><feComposite id="ev8Kzh5lUjH31-filter-drop-shadow-0-composite" operator="in" in2="tmp"/><feMerge id="ev8Kzh5lUjH31-filter-drop-shadow-0-merge" result="result"><feMergeNode id="ev8Kzh5lUjH31-filter-drop-shadow-0-merge-node-1"/><feMergeNode id="ev8Kzh5lUjH31-filter-drop-shadow-0-merge-node-2" in="SourceGraphic"/></feMerge></filter></defs><g clip-path="url(#ev8Kzh5lUjH33)"><g><rect width="289" height="91" rx="10" ry="10" fill="#858181"/><g filter="url(#ev8Kzh5lUjH5-filter)"><ellipse rx="41.5" ry="40" transform="translate(11.5 74)" fill="#64d24d"/></g><g filter="url(#ev8Kzh5lUjH7-filter)"><ellipse rx="41.5" ry="40" transform="translate(89.5 60)" fill="#53d03a"/></g><g filter="url(#ev8Kzh5lUjH9-filter)"><ellipse rx="41.5" ry="40" transform="translate(147.5 60)" fill="#539345"/></g><g filter="url(#ev8Kzh5lUjH11-filter)"><ellipse rx="41.5" ry="40" transform="translate(201.5 60)" fill="#2cff00"/></g><g filter="url(#ev8Kzh5lUjH13-filter)"><ellipse rx="41.5" ry="40" transform="translate(242.5 60)" fill="#24a409"/></g><g filter="url(#ev8Kzh5lUjH15-filter)"><ellipse rx="41.5" ry="40" transform="translate(273.5 60)" fill="#66d44f"/></g><g filter="url(#ev8Kzh5lUjH17-filter)"><ellipse rx="41.5" ry="40" transform="translate(259.5 15)" fill="#4beb2a"/></g><g filter="url(#ev8Kzh5lUjH19-filter)"><ellipse rx="41.5" ry="40" transform="translate(190.5 15)" fill="#41b22a"/></g><g filter="url(#ev8Kzh5lUjH21-filter)"><ellipse rx="41.5" ry="40" transform="translate(118.5 15)" fill="#68e85d"/></g><g filter="url(#ev8Kzh5lUjH23-filter)"><ellipse rx="41.5" ry="40" transform="translate(47.5 15)" fill="#02dd32"/></g><g filter="url(#ev8Kzh5lUjH25-filter)"><ellipse rx="41.5" ry="40" transform="translate(11.5 15)" fill="#60be4c"/></g><g filter="url(#ev8Kzh5lUjH27-filter)"><path d="M73.7144,40.296v-3.816h6.648v17.52h-4.272v-13.704h-2.376ZM83.1698,45c0-2.752.528-4.92,1.584-6.504c1.072-1.584,2.792-2.376,5.16-2.376s4.08.792,5.136,2.376c1.072,1.584,1.608,3.752,1.608,6.504c0,2.784-.536,4.968-1.608,6.552-1.056,1.584-2.768,2.376-5.136,2.376s-4.088-.792-5.16-2.376c-1.056-1.584-1.584-3.768-1.584-6.552Zm9.456,0c0-1.616-.176-2.856-.528-3.72-.352-.88-1.08-1.32-2.184-1.32s-1.832.44-2.184,1.32c-.352.864-.528,2.104-.528,3.72c0,1.088.064,1.992.192,2.712.128.704.384,1.28.768,1.728.4.432.984.648,1.752.648s1.344-.216,1.728-.648c.4-.448.664-1.024.792-1.728.128-.72.192-1.624.192-2.712Zm6.2003,0c0-2.752.528-4.92,1.5839-6.504c1.072-1.584,2.792-2.376,5.16-2.376s4.08.792,5.136,2.376c1.072,1.584,1.608,3.752,1.608,6.504c0,2.784-.536,4.968-1.608,6.552-1.056,1.584-2.768,2.376-5.136,2.376s-4.088-.792-5.16-2.376c-1.0559-1.584-1.5839-3.768-1.5839-6.552Zm9.4559,0c0-1.616-.176-2.856-.528-3.72-.352-.88-1.08-1.32-2.184-1.32s-1.832.44-2.184,1.32c-.352.864-.528,2.104-.528,3.72c0,1.088.064,1.992.192,2.712.128.704.384,1.28.768,1.728.4.432.984.648,1.752.648s1.344-.216,1.728-.648c.4-.448.664-1.024.792-1.728.128-.72.192-1.624.192-2.712Zm15.798-4.56v3.408h5.496v3.168h-5.496v3.696h6.216v3.288h-10.32v-16.848h10.32v3.288h-6.216Zm20.065,2.04c-.304-.56-.744-.984-1.32-1.272-.56-.304-1.224-.456-1.992-.456-1.328,0-2.392.44-3.192,1.32-.8.864-1.2,2.024-1.2,3.48c0,1.552.416,2.768,1.248,3.648.848.864,2.008,1.296,3.48,1.296c1.008,0,1.856-.256,2.544-.768.704-.512,1.216-1.248,1.536-2.208h-5.208v-3.024h8.928v3.816c-.304,1.024-.824,1.976-1.56,2.856-.72.88-1.64,1.592-2.76,2.136s-2.384.816-3.792.816c-1.664,0-3.152-.36-4.464-1.08-1.296-.736-2.312-1.752-3.048-3.048-.72-1.296-1.08-2.776-1.08-4.44s.36-3.144,1.08-4.44c.736-1.312,1.752-2.328,3.048-3.048c1.296-.736,2.776-1.104,4.44-1.104c2.016,0,3.712.488,5.088,1.464c1.392.976,2.312,2.328,2.76,4.056h-4.536Zm19.937.096c0,.976-.224,1.872-.672,2.688-.448.8-1.136,1.448-2.064,1.944s-2.08.744-3.456.744h-2.544v6.048h-4.104v-16.848h6.648c1.344,0,2.48.232,3.408.696s1.624,1.104,2.088,1.92.696,1.752.696,2.808Zm-6.504,2.112c.784,0,1.368-.184,1.752-.552s.576-.888.576-1.56-.192-1.192-.576-1.56-.968-.552-1.752-.552h-2.232v4.224h2.232Zm21.694,9.48c-1.584,0-3.04-.368-4.368-1.104-1.312-.736-2.36-1.76-3.144-3.072-.768-1.328-1.152-2.816-1.152-4.464s.384-3.128,1.152-4.44c.784-1.312,1.832-2.336,3.144-3.072c1.328-.736,2.784-1.104,4.368-1.104s3.032.368,4.344,1.104c1.328.736,2.368,1.76,3.12,3.072.768,1.312,1.152,2.792,1.152,4.44s-.384,3.136-1.152,4.464c-.768,1.312-1.808,2.336-3.12,3.072s-2.76,1.104-4.344,1.104Zm0-3.744c1.344,0,2.416-.448,3.216-1.344.816-.896,1.224-2.08,1.224-3.552c0-1.488-.408-2.672-1.224-3.552-.8-.896-1.872-1.344-3.216-1.344-1.36,0-2.448.44-3.264,1.32-.8.88-1.2,2.072-1.2,3.576c0,1.488.4,2.68,1.2,3.576.816.88,1.904,1.32,3.264,1.32ZM201.14,37.152v3.288h-6.864v3.552h5.136v3.192h-5.136v6.816h-4.104v-16.848h10.968Zm13.125,0v3.288h-6.864v3.552h5.136v3.192h-5.136v6.816h-4.104v-16.848h10.968Z" fill="#e8e8e8"/></g><g filter="url(#ev8Kzh5lUjH29-filter)"><path d="M106.373,65.66l-2.76,5.316v3.024h-1.368v-3.024L99.473,65.66h1.524l1.932,4.092l1.932-4.092h1.512Zm3.954,8.448c-.624,0-1.188-.14-1.692-.42-.504-.288-.9-.688-1.188-1.2-.288-.52-.432-1.12-.432-1.8c0-.672.148-1.268.444-1.788s.7-.92,1.212-1.2s1.084-.42,1.716-.42s1.204.14,1.716.42.916.68,1.212,1.2.444,1.116.444,1.788-.152,1.268-.456,1.788-.72.924-1.248,1.212c-.52.28-1.096.42-1.728.42Zm0-1.188c.352,0,.68-.084.984-.252.312-.168.564-.42.756-.756s.288-.744.288-1.224-.092-.884-.276-1.212c-.184-.336-.428-.588-.732-.756s-.632-.252-.984-.252-.68.084-.984.252c-.296.168-.532.42-.708.756-.176.328-.264.732-.264,1.212c0,.712.18,1.264.54,1.656.368.384.828.576,1.38.576Zm10.772-5.532v6.612h-1.368v-.78c-.216.272-.5.488-.852.648-.344.152-.712.228-1.104.228-.52,0-.988-.108-1.404-.324-.408-.216-.732-.536-.972-.96-.232-.424-.348-.936-.348-1.536v-3.888h1.356v3.684c0,.592.148,1.048.444,1.368.296.312.7.468,1.212.468s.916-.156,1.212-.468c.304-.32.456-.776.456-1.368v-3.684h1.368Zm3.173.96c.2-.336.464-.596.792-.78.336-.192.732-.288,1.188-.288v1.416h-.348c-.536,0-.944.136-1.224.408-.272.272-.408.744-.408,1.416v3.48h-1.368v-6.612h1.368v.96Zm11.263-2.688v1.116h-3.54v2.46h2.76v1.116h-2.76v3.648h-1.368v-8.34h4.908Zm1.963.852c-.248,0-.456-.084-.624-.252s-.252-.376-.252-.624.084-.456.252-.624.376-.252.624-.252c.24,0,.444.084.612.252s.252.376.252.624-.084.456-.252.624-.372.252-.612.252Zm.672.876v6.612h-1.368v-6.612h1.368Zm3.164.96c.2-.336.464-.596.792-.78.336-.192.732-.288,1.188-.288v1.416h-.348c-.536,0-.944.136-1.224.408-.272.272-.408.744-.408,1.416v3.48h-1.368v-6.612h1.368v.96Zm5.638,5.76c-.52,0-.988-.092-1.404-.276-.408-.192-.732-.448-.972-.768-.24-.328-.368-.692-.384-1.092h1.416c.024.28.156.516.396.708.248.184.556.276.924.276.384,0,.68-.072.888-.216.216-.152.324-.344.324-.576c0-.248-.12-.432-.36-.552-.232-.12-.604-.252-1.116-.396-.496-.136-.9-.268-1.212-.396s-.584-.324-.816-.588c-.224-.264-.336-.612-.336-1.044c0-.352.104-.672.312-.96.208-.296.504-.528.888-.696.392-.168.84-.252,1.344-.252.752,0,1.356.192,1.812.576.464.376.712.892.744,1.548h-1.368c-.024-.296-.144-.532-.36-.708s-.508-.264-.876-.264c-.36,0-.636.068-.828.204s-.288.316-.288.54c0,.176.064.324.192.444s.284.216.468.288c.184.064.456.148.816.252.48.128.872.26,1.176.396.312.128.58.32.804.576s.34.596.348,1.02c0,.376-.104.712-.312,1.008s-.504.528-.888.696c-.376.168-.82.252-1.332.252Zm5.606-5.604v3.66c0,.248.056.428.168.54.12.104.32.156.6.156h.84v1.14h-1.08c-.616,0-1.088-.144-1.416-.432s-.492-.756-.492-1.404v-3.66h-.78v-1.116h.78v-1.644h1.38v1.644h1.608v1.116h-1.608Zm9.79,5.58c-.776,0-1.492-.18-2.148-.54-.648-.368-1.164-.876-1.548-1.524-.376-.656-.564-1.392-.564-2.208s.188-1.548.564-2.196c.384-.648.9-1.152,1.548-1.512.656-.368,1.372-.552,2.148-.552.784,0,1.5.184,2.148.552.656.36,1.172.864,1.548,1.512s.564,1.38.564,2.196-.188,1.552-.564,2.208c-.376.648-.892,1.156-1.548,1.524-.648.36-1.364.54-2.148.54Zm0-1.188c.552,0,1.044-.124,1.476-.372.432-.256.768-.616,1.008-1.08.248-.472.372-1.016.372-1.632s-.124-1.156-.372-1.62c-.24-.464-.576-.82-1.008-1.068s-.924-.372-1.476-.372-1.044.124-1.476.372-.772.604-1.02,1.068c-.24.464-.36,1.004-.36,1.62s.12,1.16.36,1.632c.248.464.588.824,1.02,1.08.432.248.924.372,1.476.372Zm6.974-4.548c.2-.336.464-.596.792-.78.336-.192.732-.288,1.188-.288v1.416h-.348c-.536,0-.944.136-1.224.408-.272.272-.408.744-.408,1.416v3.48h-1.368v-6.612h1.368v.96Zm2.782,2.316c0-.664.136-1.252.408-1.764.28-.512.656-.908,1.128-1.188.48-.288,1.012-.432,1.596-.432.432,0,.856.096,1.272.288.424.184.76.432,1.008.744v-3.192h1.38v8.88h-1.38v-.996c-.224.32-.536.584-.936.792-.392.208-.844.312-1.356.312-.576,0-1.104-.144-1.584-.432-.472-.296-.848-.704-1.128-1.224-.272-.528-.408-1.124-.408-1.788Zm5.412.024c0-.456-.096-.852-.288-1.188-.184-.336-.428-.592-.732-.768s-.632-.264-.984-.264-.68.088-.984.264c-.304.168-.552.42-.744.756-.184.328-.276.72-.276,1.176s.092.856.276,1.2c.192.344.44.608.744.792.312.176.64.264.984.264.352,0,.68-.088.984-.264s.548-.432.732-.768c.192-.344.288-.744.288-1.2Zm9.237-.156c0,.248-.016.472-.048.672h-5.052c.04.528.236.952.588,1.272s.784.48,1.296.48c.736,0,1.256-.308,1.56-.924h1.475c-.199.608-.563,1.108-1.091,1.5-.52.384-1.168.576-1.944.576-.632,0-1.2-.14-1.704-.42-.496-.288-.888-.688-1.176-1.2-.28-.52-.42-1.12-.42-1.8s.136-1.276.408-1.788c.28-.52.668-.92,1.164-1.2.504-.28,1.08-.42,1.728-.42.624,0,1.18.136,1.668.408s.868.656,1.14,1.152c.272.488.408,1.052.408,1.692Zm-1.428-.432c-.008-.504-.188-.908-.54-1.212s-.788-.456-1.308-.456c-.472,0-.876.152-1.212.456-.336.296-.536.7-.6,1.212h3.66Zm4.142-1.752c.2-.336.464-.596.792-.78.336-.192.732-.288,1.188-.288v1.416h-.348c-.536,0-.944.136-1.224.408-.272.272-.408.744-.408,1.416v3.48h-1.368v-6.612h1.368v.96Z" fill="#e8e8e8"/></g><g filter="url(#ev8Kzh5lUjH31-filter)"><path d="M140.36,21.06c-.216-.416-.516-.728-.9-.936-.384-.216-.828-.324-1.332-.324-.552,0-1.044.124-1.476.372s-.772.6-1.02,1.056c-.24.456-.36.984-.36,1.584s.12,1.132.36,1.596c.248.456.588.808,1.02,1.056s.924.372,1.476.372c.744,0,1.348-.208,1.812-.624s.748-.98.852-1.692h-3.132v-1.092h4.596v1.068c-.088.648-.32,1.244-.696,1.788-.368.544-.852.98-1.452,1.308-.592.32-1.252.48-1.98.48-.784,0-1.5-.18-2.148-.54-.648-.368-1.164-.876-1.548-1.524-.376-.648-.564-1.38-.564-2.196s.188-1.548.564-2.196c.384-.648.9-1.152,1.548-1.512.656-.368,1.372-.552,2.148-.552.888,0,1.676.22,2.364.66.696.432,1.2,1.048,1.512,1.848h-1.644Zm9.305,2.472c0,.248-.016.472-.048.672h-5.052c.04.528.236.952.588,1.272s.784.48,1.296.48c.736,0,1.256-.308,1.56-.924h1.476c-.2.608-.564,1.108-1.092,1.5-.52.384-1.168.576-1.944.576-.632,0-1.2-.14-1.704-.42-.496-.288-.888-.688-1.176-1.2-.28-.52-.42-1.12-.42-1.8s.136-1.276.408-1.788c.28-.52.668-.92,1.164-1.2.504-.28,1.08-.42,1.728-.42.624,0,1.18.136,1.668.408s.868.656,1.14,1.152c.272.488.408,1.052.408,1.692Zm-1.428-.432c-.008-.504-.188-.908-.54-1.212s-.788-.456-1.308-.456c-.472,0-.876.152-1.212.456-.336.296-.536.7-.6,1.212h3.66Zm4.37-1.596v3.66c0,.248.056.428.168.54.12.104.32.156.6.156h.84v1.14h-1.08c-.616,0-1.088-.144-1.416-.432s-.492-.756-.492-1.404v-3.66h-.78v-1.116h.78v-1.644h1.38v1.644h1.608v1.116h-1.608Z" fill="#e8e8e8"/></g></g><clipPath id="ev8Kzh5lUjH33"><rect width="289" height="91" rx="10" ry="10" fill="#fff"/></clipPath></g></svg>
