<svg width="48" height="48" viewBox="0 0 48 48" fill="none" xmlns="http://www.w3.org/2000/svg">
<path d="M48 24C48 10.7452 37.2548 0 24 0C10.7452 0 0 10.7452 0 24C0 37.2548 10.7452 48 24 48C37.2548 48 48 37.2548 48 24Z" fill="#FF0000"/>
<path d="M23.99 12.6755C23.99 12.6755 13.875 12.6755 11.3362 13.3352C9.97691 13.715 8.85761 14.8343 8.4778 16.2137C7.81813 18.7524 7.81812 24.0099 7.81812 24.0099C7.81812 24.0099 7.81813 29.2874 8.4778 31.7862C8.85761 33.1655 9.95692 34.2648 11.3362 34.6446C13.895 35.3243 23.99 35.3243 23.99 35.3243C23.99 35.3243 34.1251 35.3243 36.6637 34.6646C38.0431 34.2848 39.1424 33.2055 39.5022 31.8062C40.1818 29.2874 40.1819 24.0299 40.1819 24.0299C40.1819 24.0299 40.2018 18.7524 39.5022 16.2137C39.1424 14.8343 38.0431 13.735 36.6637 13.3752C34.1251 12.6756 23.99 12.6755 23.99 12.6755ZM20.7716 19.1524L29.1875 24.0099L20.7716 28.8474V19.1524Z" fill="white"/>
</svg>
